<svg id="svg" version="1.1" xmlns="http://www.w3.org/2000/svg" xmlns:xlink="http://www.w3.org/1999/xlink" width="400" height="308.3720930232558" viewBox="0, 0, 400,308.3720930232558"><g id="svgg"><path id="path0" d="M0.000 154.202 L 0.000 308.404 200.000 308.404 L 400.000 308.404 400.000 154.202 L 400.000 0.000 200.000 0.000 L 0.000 0.000 0.000 154.202 M204.707 20.033 C 205.225 20.318,210.514 20.894,215.266 21.183 C 216.538 21.261,217.982 21.522,218.475 21.765 C 218.967 22.007,219.850 22.205,220.437 22.205 C 221.024 22.205,222.009 22.465,222.626 22.784 C 223.824 23.402,229.721 25.462,231.766 25.976 C 232.444 26.147,233.240 26.409,233.535 26.559 C 233.829 26.709,234.260 26.831,234.491 26.831 C 234.722 26.831,235.453 27.222,236.114 27.701 C 237.352 28.596,241.347 30.657,241.926 30.700 C 243.003 30.779,248.965 34.516,250.983 36.375 C 251.545 36.893,252.170 37.317,252.374 37.317 C 252.577 37.317,253.090 37.629,253.514 38.011 C 253.938 38.392,254.977 39.253,255.824 39.923 C 259.689 42.981,268.917 52.854,269.747 54.819 C 269.980 55.370,270.280 55.821,270.414 55.821 C 270.647 55.821,273.148 59.171,273.635 60.136 C 273.764 60.392,274.144 61.018,274.479 61.527 C 274.813 62.035,275.220 62.751,275.381 63.116 C 275.543 63.481,275.822 63.871,276.003 63.982 C 276.183 64.093,276.330 64.419,276.331 64.706 C 276.332 65.338,278.039 68.771,279.194 70.465 C 279.654 71.140,280.031 71.912,280.031 72.179 C 280.031 72.447,280.235 72.935,280.484 73.264 C 280.733 73.593,280.936 74.071,280.936 74.325 C 280.936 75.102,283.859 83.704,284.271 84.139 C 284.483 84.363,284.657 84.950,284.657 85.444 C 284.657 85.937,284.854 86.864,285.094 87.503 C 285.499 88.579,285.877 90.742,286.053 92.984 C 286.467 98.260,286.941 102.255,287.162 102.339 C 287.522 102.476,287.512 111.562,287.151 111.694 C 286.996 111.750,286.709 113.948,286.513 116.577 C 286.043 122.891,284.799 129.842,284.097 130.076 C 283.896 130.143,283.728 130.429,283.723 130.712 C 283.719 130.995,283.148 132.822,282.455 134.773 C 281.761 136.723,281.122 138.805,281.035 139.399 C 280.947 139.992,280.686 140.752,280.453 141.086 C 280.221 141.421,280.031 141.873,280.031 142.091 C 280.031 142.309,279.614 143.063,279.106 143.765 C 278.597 144.468,278.180 145.170,278.180 145.327 C 278.180 145.483,277.799 146.260,277.332 147.054 C 276.866 147.847,276.468 148.705,276.447 148.959 C 276.415 149.363,275.188 151.511,273.482 154.146 C 273.188 154.601,272.811 155.280,272.646 155.655 C 272.481 156.029,271.785 156.897,271.099 157.582 C 270.414 158.267,269.854 158.952,269.854 159.103 C 269.854 160.887,253.961 176.715,252.170 176.715 C 251.896 176.715,251.450 177.054,251.179 177.468 C 250.676 178.235,244.985 182.053,243.022 182.939 C 238.771 184.860,236.854 185.813,236.854 186.007 C 236.854 186.331,233.449 187.904,232.537 188.001 C 231.416 188.121,223.647 190.829,222.877 191.369 C 222.517 191.621,221.758 191.827,221.191 191.827 C 220.624 191.827,219.877 191.979,219.531 192.164 C 218.791 192.560,215.982 193.017,212.953 193.234 C 208.062 193.585,204.977 193.975,204.672 194.280 C 204.161 194.791,196.129 194.699,195.036 194.169 C 194.543 193.930,192.891 193.644,191.365 193.532 C 183.916 192.988,181.096 192.630,180.639 192.173 C 180.449 191.983,179.717 191.827,179.014 191.827 C 178.178 191.827,177.489 191.614,177.024 191.210 C 176.633 190.871,176.121 190.594,175.888 190.594 C 175.415 190.594,172.818 189.745,169.715 188.577 C 168.597 188.156,167.528 187.839,167.341 187.873 C 166.834 187.964,162.439 185.742,159.261 183.787 C 158.736 183.464,158.228 183.278,158.133 183.374 C 157.739 183.767,149.631 178.508,148.710 177.261 C 148.489 176.961,148.121 176.715,147.893 176.715 C 146.226 176.715,130.455 161.116,130.455 159.467 C 130.455 159.306,130.034 158.715,129.520 158.153 C 129.006 157.591,128.208 156.577,127.747 155.898 C 127.286 155.220,126.804 154.618,126.677 154.562 C 126.550 154.505,126.446 154.329,126.446 154.170 C 126.446 154.011,126.070 153.294,125.612 152.577 C 124.530 150.885,123.670 149.221,123.669 148.817 C 123.667 148.289,121.687 144.522,120.798 143.356 C 120.342 142.759,119.969 142.166,119.969 142.038 C 119.969 141.910,119.743 141.328,119.466 140.745 C 119.190 140.162,119.045 139.603,119.146 139.503 C 119.246 139.402,119.113 138.817,118.850 138.203 C 118.587 137.588,117.898 135.628,117.319 133.847 C 116.740 132.066,116.058 130.241,115.804 129.791 C 115.551 129.340,115.343 128.629,115.343 128.210 C 115.343 127.791,115.144 126.883,114.900 126.191 C 114.656 125.500,114.294 123.366,114.097 121.449 C 113.899 119.533,113.595 116.577,113.421 114.880 C 112.855 109.376,113.172 97.151,113.942 94.720 C 114.030 94.444,114.168 93.208,114.250 91.974 C 114.331 90.741,114.611 89.016,114.871 88.141 C 115.130 87.265,115.343 86.223,115.343 85.824 C 115.343 85.424,115.537 84.790,115.774 84.415 C 116.011 84.039,116.708 82.205,117.323 80.339 C 117.939 78.473,118.581 76.669,118.750 76.330 C 118.920 75.991,119.117 75.242,119.189 74.666 C 119.260 74.090,119.465 73.472,119.644 73.294 C 119.823 73.115,119.969 72.785,119.969 72.561 C 119.969 72.337,120.344 71.567,120.801 70.850 C 121.923 69.091,123.668 65.626,123.669 65.155 C 123.671 64.440,128.575 56.723,129.435 56.082 C 129.741 55.854,130.241 55.177,130.544 54.578 C 131.127 53.428,135.664 47.971,136.690 47.186 C 138.560 45.756,139.156 45.178,139.551 44.413 C 140.032 43.484,145.904 38.413,147.500 37.548 C 148.048 37.251,148.635 36.822,148.805 36.595 C 149.095 36.206,153.178 33.308,153.435 33.308 C 153.501 33.308,154.171 32.891,154.925 32.382 C 155.679 31.874,156.432 31.457,156.599 31.457 C 156.766 31.457,157.074 31.251,157.283 30.998 C 157.493 30.745,157.783 30.612,157.929 30.702 C 158.234 30.891,162.068 28.987,163.972 27.701 C 164.681 27.223,165.549 26.831,165.900 26.831 C 166.251 26.831,166.538 26.707,166.538 26.555 C 166.538 26.403,167.059 26.210,167.695 26.126 C 168.992 25.953,176.367 23.450,177.795 22.697 C 178.304 22.428,179.206 22.203,179.800 22.196 C 180.393 22.189,181.226 21.985,181.650 21.742 C 182.108 21.480,183.296 21.297,184.580 21.289 C 185.767 21.282,187.224 21.148,187.818 20.991 C 188.412 20.835,190.275 20.630,191.959 20.538 C 193.643 20.445,195.163 20.227,195.336 20.053 C 195.739 19.651,203.980 19.632,204.707 20.033 M131.997 178.979 C 132.760 179.665,133.665 180.512,134.008 180.861 C 134.352 181.210,135.323 182.039,136.167 182.703 C 137.012 183.367,138.210 184.389,138.830 184.973 C 139.450 185.558,140.242 186.194,140.590 186.387 C 141.557 186.924,146.435 190.269,148.342 191.703 C 149.275 192.405,150.524 193.238,151.118 193.556 C 151.712 193.874,152.406 194.296,152.660 194.495 C 152.914 194.693,153.829 195.085,154.691 195.365 C 155.554 195.645,156.665 196.142,157.159 196.468 C 158.939 197.644,159.567 197.940,164.534 199.954 C 165.746 200.445,167.643 200.963,169.468 201.301 C 169.977 201.395,170.667 201.662,171.002 201.893 C 171.336 202.124,172.030 202.318,172.544 202.324 C 173.057 202.330,173.824 202.533,174.248 202.776 C 174.672 203.018,175.336 203.221,175.724 203.227 C 176.112 203.233,176.736 203.432,177.112 203.668 C 177.488 203.905,179.460 204.329,181.496 204.611 C 183.531 204.893,186.029 205.343,187.047 205.612 C 189.433 206.242,210.221 206.329,212.490 205.718 C 213.254 205.512,214.780 205.222,215.883 205.073 C 220.463 204.455,223.109 203.920,223.219 203.590 C 223.283 203.396,223.784 203.238,224.331 203.238 C 224.878 203.238,225.595 203.034,225.924 202.785 C 226.253 202.536,226.914 202.328,227.391 202.323 C 227.869 202.317,228.559 202.153,228.926 201.956 C 229.595 201.598,231.194 201.133,232.429 200.937 C 233.318 200.796,234.407 200.483,235.158 200.152 C 235.497 200.003,237.024 199.357,238.551 198.717 C 240.077 198.077,241.881 197.186,242.560 196.736 C 243.238 196.287,244.348 195.740,245.027 195.521 C 245.705 195.303,246.955 194.730,247.803 194.249 C 248.651 193.768,249.628 193.248,249.974 193.095 C 250.320 192.942,250.793 192.588,251.025 192.309 C 251.257 192.029,252.778 190.912,254.405 189.826 C 259.745 186.262,260.131 185.991,260.910 185.255 C 261.334 184.855,262.305 184.057,263.069 183.482 C 263.832 182.907,264.526 182.364,264.611 182.275 C 265.982 180.833,269.281 177.882,269.594 177.818 C 269.821 177.772,270.233 177.635,270.508 177.515 C 270.834 177.373,271.840 177.788,273.386 178.702 C 274.694 179.475,275.825 180.108,275.899 180.108 C 275.973 180.108,276.600 180.466,277.293 180.903 C 277.985 181.340,278.808 181.747,279.122 181.807 C 279.884 181.954,284.538 185.027,285.891 186.277 C 286.484 186.826,287.440 187.476,288.014 187.722 C 288.967 188.130,290.172 188.899,291.424 189.898 C 291.688 190.109,292.335 190.594,292.862 190.977 C 294.993 192.527,297.610 194.717,297.610 194.951 C 297.610 195.088,297.945 195.378,298.356 195.595 C 299.617 196.264,306.513 202.606,306.933 203.484 C 307.152 203.940,307.685 204.482,308.119 204.690 C 308.552 204.898,309.711 205.940,310.694 207.006 C 311.677 208.072,313.061 209.568,313.770 210.332 C 314.480 211.095,315.401 212.186,315.818 212.756 C 316.235 213.327,317.062 214.310,317.656 214.942 C 319.477 216.881,321.974 219.981,321.974 220.303 C 321.974 220.395,322.390 220.927,322.899 221.484 C 323.408 222.041,323.824 222.719,323.824 222.990 C 323.824 223.261,324.651 224.439,325.661 225.607 C 326.671 226.775,327.746 228.223,328.051 228.823 C 328.355 229.424,328.778 230.026,328.990 230.162 C 329.202 230.297,329.375 230.593,329.375 230.818 C 329.375 231.043,329.584 231.400,329.838 231.611 C 330.093 231.823,330.301 232.238,330.301 232.535 C 330.301 232.832,331.064 234.347,331.997 235.902 C 332.930 237.457,333.693 238.837,333.693 238.970 C 333.693 239.102,334.157 239.756,334.725 240.423 C 335.292 241.089,335.706 241.782,335.644 241.962 C 335.582 242.142,336.351 243.946,337.353 245.971 C 338.354 247.996,339.265 249.952,339.375 250.318 C 339.486 250.684,339.779 251.062,340.027 251.157 C 340.275 251.252,340.478 251.552,340.478 251.824 C 340.478 252.096,340.686 252.527,340.941 252.781 C 341.195 253.036,341.408 253.546,341.413 253.916 C 341.418 254.285,341.627 254.857,341.876 255.186 C 342.125 255.515,342.328 256.088,342.328 256.459 C 342.328 256.830,342.522 257.294,342.758 257.490 C 343.145 257.811,343.307 258.336,343.693 260.520 C 343.760 260.900,344.105 261.680,344.460 262.253 C 344.814 262.826,345.104 263.517,345.104 263.788 C 345.104 264.060,345.296 264.737,345.530 265.294 C 346.360 267.265,347.005 269.523,346.822 269.818 C 346.721 269.982,346.833 270.716,347.073 271.450 C 347.312 272.183,347.822 274.102,348.206 275.713 C 348.590 277.325,349.090 278.862,349.317 279.130 C 349.544 279.398,349.730 280.168,349.730 280.842 C 349.730 281.515,349.872 282.208,350.046 282.382 C 350.658 282.994,351.224 289.147,350.715 289.655 C 350.580 289.790,282.751 289.866,199.984 289.823 L 49.499 289.746 49.410 287.220 C 49.348 285.469,49.466 284.347,49.795 283.559 C 50.056 282.934,50.271 281.919,50.272 281.304 C 50.273 280.689,50.550 279.769,50.887 279.260 C 51.224 278.751,51.500 278.069,51.501 277.745 C 51.503 277.188,51.656 276.589,52.907 272.231 C 53.189 271.249,53.350 270.180,53.265 269.855 C 53.180 269.531,53.300 269.016,53.531 268.711 C 53.762 268.407,53.960 267.741,53.972 267.232 C 53.983 266.723,54.191 265.960,54.433 265.536 C 54.676 265.112,54.879 264.471,54.885 264.113 C 54.891 263.754,55.166 263.117,55.496 262.698 C 55.826 262.278,56.253 261.254,56.445 260.420 C 56.894 258.472,57.930 255.723,59.086 253.406 C 59.326 252.926,59.522 252.357,59.522 252.143 C 59.522 251.929,59.800 251.502,60.139 251.195 C 60.478 250.888,60.756 250.506,60.756 250.347 C 60.756 250.187,61.588 248.384,62.606 246.340 C 63.624 244.295,64.456 242.409,64.456 242.148 C 64.456 241.888,64.711 241.388,65.022 241.038 C 65.673 240.305,69.082 234.479,69.082 234.099 C 69.082 233.960,69.297 233.668,69.559 233.450 C 69.821 233.233,69.973 232.891,69.896 232.691 C 69.778 232.383,70.498 231.169,73.168 227.179 C 73.381 226.862,74.066 226.062,74.692 225.401 C 75.317 224.740,75.927 223.892,76.046 223.516 C 76.240 222.906,77.294 221.218,77.732 220.817 C 77.825 220.732,78.581 219.761,79.413 218.658 C 81.137 216.372,81.857 215.508,82.987 214.372 C 83.425 213.931,83.842 213.406,83.912 213.205 C 83.982 213.004,85.495 211.288,87.274 209.392 C 89.052 207.496,90.691 205.683,90.915 205.362 C 91.139 205.042,91.434 204.780,91.570 204.780 C 91.705 204.780,93.871 202.768,96.382 200.308 C 98.892 197.849,101.069 195.837,101.219 195.837 C 101.369 195.837,102.145 195.235,102.943 194.500 C 105.015 192.593,110.353 188.633,111.730 187.982 C 112.371 187.678,113.343 187.009,113.888 186.495 C 115.140 185.317,118.491 183.003,119.332 182.736 C 119.682 182.625,119.969 182.404,119.969 182.246 C 119.969 182.088,120.225 181.958,120.537 181.958 C 120.849 181.958,122.883 180.920,125.057 179.652 C 129.575 177.015,129.790 176.994,131.997 178.979 " stroke="none" fill="#f4f4f4" fill-rule="evenodd"></path><path id="path1" d="M191.441 21.305 C 191.143 21.478,189.478 21.743,187.740 21.892 C 184.495 22.172,181.892 22.622,180.262 23.185 C 179.753 23.361,178.782 23.608,178.103 23.734 C 177.425 23.860,176.523 24.105,176.099 24.278 C 175.675 24.451,174.495 24.841,173.477 25.145 C 172.460 25.450,171.210 25.865,170.702 26.069 C 170.193 26.272,169.152 26.683,168.389 26.982 C 153.351 32.870,140.292 42.906,130.661 55.975 C 129.536 57.502,128.502 58.890,128.363 59.059 C 128.224 59.229,128.012 59.576,127.892 59.830 C 127.771 60.085,127.398 60.709,127.064 61.218 C 126.729 61.727,126.311 62.421,126.134 62.760 C 125.958 63.099,125.344 64.210,124.771 65.227 C 124.198 66.245,123.428 67.702,123.061 68.466 C 122.694 69.229,121.990 70.686,121.496 71.704 C 120.521 73.714,119.131 77.316,118.758 78.804 C 118.629 79.317,118.363 80.037,118.167 80.403 C 117.971 80.770,117.810 81.301,117.810 81.583 C 117.810 81.865,117.616 82.534,117.379 83.068 C 117.142 83.603,116.726 85.012,116.453 86.199 C 116.181 87.386,115.750 89.236,115.496 90.310 C 115.242 91.384,115.032 92.841,115.029 93.548 C 115.026 94.256,114.818 95.806,114.567 96.993 C 113.922 100.038,113.922 113.994,114.567 117.039 C 114.818 118.227,115.025 119.823,115.027 120.586 C 115.031 122.662,117.120 131.253,118.310 134.089 C 118.544 134.646,118.740 135.340,118.745 135.631 C 118.751 135.922,118.959 136.430,119.208 136.759 C 119.457 137.088,119.661 137.593,119.661 137.880 C 119.661 138.168,119.868 138.800,120.121 139.286 C 120.375 139.772,120.583 140.395,120.584 140.672 C 120.585 140.948,120.794 141.346,121.049 141.557 C 121.303 141.769,121.511 142.100,121.511 142.293 C 121.511 142.750,125.832 151.247,126.539 152.179 C 126.828 152.561,129.234 156.189,129.684 156.923 C 129.854 157.200,130.137 157.568,130.314 157.742 C 130.491 157.915,131.463 159.167,132.473 160.524 C 139.998 170.634,156.526 182.991,167.926 187.032 C 168.774 187.333,169.884 187.754,170.393 187.969 C 171.554 188.459,173.200 189.030,174.402 189.360 C 174.911 189.500,175.744 189.754,176.253 189.924 C 179.126 190.887,180.347 191.213,181.071 191.212 C 181.517 191.211,182.471 191.419,183.192 191.673 C 183.913 191.928,185.150 192.136,185.942 192.136 C 186.733 192.136,188.179 192.344,189.156 192.598 C 191.699 193.261,208.481 193.261,210.948 192.598 C 211.881 192.348,213.378 192.141,214.274 192.139 C 215.170 192.137,216.401 191.928,217.010 191.673 C 217.619 191.419,218.469 191.210,218.900 191.210 C 219.678 191.210,222.137 190.569,224.210 189.825 C 224.803 189.612,226.191 189.151,227.294 188.800 C 228.396 188.449,230.062 187.865,230.995 187.502 C 231.928 187.140,232.968 186.748,233.308 186.633 C 236.179 185.659,248.326 178.801,250.759 176.781 C 250.999 176.582,252.305 175.561,253.662 174.513 C 259.916 169.684,269.336 159.206,273.087 152.905 C 273.259 152.616,273.921 151.530,274.557 150.493 C 275.193 149.455,275.713 148.416,275.713 148.184 C 275.713 147.952,275.852 147.676,276.021 147.572 C 276.190 147.467,276.663 146.661,277.071 145.780 C 277.479 144.899,278.381 142.956,279.076 141.462 C 279.771 139.968,280.339 138.503,280.339 138.206 C 280.339 137.909,280.543 137.397,280.792 137.067 C 281.041 136.738,281.249 136.183,281.255 135.834 C 281.260 135.485,281.468 134.929,281.717 134.600 C 281.966 134.271,282.174 133.676,282.180 133.277 C 282.185 132.879,282.384 132.115,282.621 131.581 C 283.134 130.425,283.671 128.437,284.065 126.229 C 284.223 125.347,284.490 124.263,284.659 123.819 C 284.827 123.376,284.965 122.383,284.965 121.613 C 284.965 120.843,285.197 119.360,285.481 118.317 C 286.130 115.929,286.272 97.771,285.650 96.640 C 285.450 96.276,285.148 94.680,284.978 93.093 C 284.633 89.855,284.112 87.082,283.699 86.280 C 283.547 85.986,283.425 85.569,283.428 85.355 C 283.433 84.858,282.234 80.952,281.684 79.676 C 281.453 79.141,281.264 78.421,281.264 78.075 C 281.264 77.729,281.142 77.370,280.993 77.278 C 280.844 77.186,280.488 76.380,280.203 75.487 C 279.918 74.593,278.500 71.503,277.053 68.620 C 274.041 62.621,274.191 62.888,272.158 59.857 C 271.315 58.599,270.486 57.358,270.316 57.098 C 270.146 56.838,269.901 56.479,269.770 56.301 C 264.116 48.554,254.884 39.890,246.415 34.381 C 243.892 32.740,235.521 28.373,234.897 28.373 C 234.685 28.373,234.348 28.211,234.150 28.013 C 233.803 27.666,232.116 26.961,230.840 26.631 C 230.501 26.543,229.946 26.348,229.607 26.197 C 228.508 25.708,226.241 24.939,225.135 24.678 C 224.541 24.539,223.639 24.286,223.130 24.117 C 220.336 23.188,218.956 22.822,218.252 22.822 C 217.819 22.822,217.074 22.670,216.597 22.483 C 216.119 22.297,214.230 22.021,212.399 21.870 C 210.568 21.719,208.808 21.455,208.487 21.283 C 207.703 20.863,192.165 20.883,191.441 21.305 M128.142 178.820 C 127.633 179.128,126.315 179.875,125.212 180.479 C 121.983 182.249,118.465 184.436,115.391 186.584 C 113.814 187.687,112.294 188.728,112.014 188.897 C 105.004 193.147,91.569 205.660,83.041 215.883 C 79.763 219.812,71.241 231.527,71.241 232.104 C 71.241 232.223,68.274 237.329,67.226 239.013 C 66.885 239.561,61.197 251.090,60.608 252.429 C 59.683 254.528,59.244 255.584,58.746 256.901 C 58.458 257.664,58.029 258.657,57.792 259.107 C 57.556 259.557,57.359 260.251,57.353 260.649 C 57.348 261.047,57.140 261.642,56.891 261.971 C 56.642 262.300,56.438 262.864,56.438 263.223 C 56.438 263.582,56.234 264.145,55.985 264.475 C 55.736 264.804,55.523 265.420,55.512 265.844 C 55.500 266.268,55.293 266.962,55.050 267.386 C 54.808 267.810,54.604 268.581,54.598 269.098 C 54.592 269.615,54.450 270.176,54.282 270.344 C 54.114 270.512,53.844 271.269,53.682 272.025 C 53.391 273.381,53.065 274.695,52.268 277.718 C 51.391 281.045,51.096 282.415,50.877 284.194 C 50.752 285.212,50.495 286.435,50.305 286.913 C 50.116 287.390,49.961 288.188,49.961 288.686 L 49.961 289.591 200.000 289.591 L 350.039 289.591 350.039 288.242 C 350.039 287.500,349.830 286.303,349.576 285.582 C 349.322 284.861,349.113 283.787,349.113 283.195 C 349.113 282.603,348.915 281.475,348.672 280.689 C 348.117 278.891,347.599 276.843,347.297 275.251 C 347.169 274.572,346.910 273.531,346.722 272.938 C 346.534 272.344,346.151 271.025,345.870 270.008 C 345.589 268.990,345.220 267.741,345.050 267.232 C 344.881 266.723,344.637 265.890,344.510 265.379 C 344.382 264.869,344.135 264.175,343.961 263.837 C 343.603 263.142,343.018 261.514,342.631 260.139 C 342.171 258.505,341.369 256.447,341.073 256.145 C 340.915 255.984,340.786 255.659,340.786 255.424 C 340.786 254.339,333.092 238.953,330.654 235.162 C 330.216 234.482,329.525 233.300,329.117 232.537 C 328.710 231.773,328.046 230.707,327.643 230.167 C 327.239 229.627,326.908 229.096,326.908 228.987 C 326.908 228.878,326.305 228.001,325.567 227.039 C 324.829 226.077,323.563 224.318,322.755 223.130 C 321.504 221.295,316.948 215.435,316.400 214.958 C 316.302 214.873,314.760 213.138,312.973 211.103 C 303.620 200.451,291.217 190.207,278.354 182.509 C 270.212 177.636,270.980 177.768,267.849 180.693 C 265.588 182.805,263.227 184.773,259.321 187.805 C 258.784 188.222,257.221 189.292,255.849 190.183 C 254.477 191.074,253.083 192.017,252.751 192.278 C 252.420 192.539,251.981 192.753,251.775 192.753 C 251.569 192.753,251.354 192.868,251.298 193.008 C 251.072 193.570,240.252 199.229,239.404 199.229 C 239.217 199.229,238.601 199.461,238.036 199.745 C 237.471 200.029,236.640 200.445,236.190 200.670 C 235.740 200.895,235.115 201.084,234.802 201.089 C 234.489 201.095,233.963 201.303,233.634 201.552 C 233.305 201.801,232.680 202.010,232.246 202.016 C 231.812 202.022,231.110 202.225,230.686 202.467 C 230.262 202.710,229.542 202.913,229.085 202.919 C 228.629 202.925,228.175 203.061,228.076 203.220 C 227.977 203.380,227.240 203.606,226.438 203.722 C 225.637 203.838,224.835 204.048,224.658 204.188 C 224.480 204.329,223.578 204.577,222.653 204.739 C 218.247 205.512,216.834 205.790,215.246 206.194 C 214.302 206.434,212.611 206.631,211.488 206.631 C 210.365 206.631,209.056 206.779,208.579 206.960 C 207.442 207.393,192.977 207.385,191.521 206.952 C 190.928 206.775,189.619 206.631,188.611 206.631 C 187.604 206.631,186.007 206.435,185.063 206.195 C 184.119 205.956,182.444 205.605,181.342 205.416 C 177.026 204.674,176.526 204.575,175.482 204.253 C 172.329 203.282,171.226 202.968,170.320 202.780 C 169.770 202.667,169.242 202.446,169.145 202.289 C 169.048 202.133,168.635 202.005,168.227 202.005 C 167.516 202.005,166.153 201.515,164.277 200.586 C 163.797 200.349,163.194 200.154,162.937 200.154 C 162.680 200.154,162.102 199.963,161.651 199.729 C 161.201 199.496,158.543 198.169,155.744 196.781 C 152.945 195.393,150.286 194.022,149.834 193.736 C 149.383 193.450,148.342 192.811,147.521 192.316 C 144.128 190.272,137.567 185.476,135.389 183.448 C 133.317 181.518,129.483 178.258,129.288 178.259 C 129.166 178.259,128.651 178.512,128.142 178.820 " stroke="none" fill="#b4b4b4" fill-rule="evenodd"></path><path id="path2" d="M197.132 20.892 C 198.607 20.949,201.105 20.949,202.683 20.893 C 204.261 20.837,203.053 20.791,200.000 20.790 C 196.947 20.790,195.656 20.836,197.132 20.892 M190.124 21.152 C 189.951 21.225,188.979 21.417,187.965 21.579 L 186.122 21.873 188.536 21.733 C 190.797 21.601,193.124 20.968,191.210 21.005 C 190.786 21.013,190.298 21.080,190.124 21.152 M208.568 21.281 C 208.870 21.473,210.396 21.681,211.960 21.745 C 214.580 21.851,214.646 21.840,212.799 21.607 C 211.696 21.468,210.170 21.260,209.406 21.144 C 208.313 20.977,208.135 21.006,208.568 21.281 M183.440 22.060 C 183.351 22.149,182.668 22.354,181.924 22.515 L 180.571 22.806 182.191 22.674 C 183.896 22.535,185.529 21.925,184.246 21.906 C 183.892 21.901,183.530 21.970,183.440 22.060 M216.191 22.348 C 216.955 22.604,217.995 22.799,218.504 22.782 C 219.336 22.754,219.304 22.724,218.196 22.480 C 215.543 21.898,214.673 21.840,216.191 22.348 M177.795 23.430 C 175.232 24.180,174.201 24.630,175.019 24.642 C 175.359 24.647,175.983 24.452,176.407 24.210 C 176.831 23.967,177.594 23.759,178.103 23.747 C 178.612 23.735,179.375 23.527,179.800 23.285 C 180.810 22.707,180.087 22.760,177.795 23.430 M220.355 23.296 C 220.864 23.529,221.599 23.726,221.989 23.733 C 222.379 23.741,223.117 23.964,223.629 24.228 C 224.141 24.493,224.793 24.662,225.079 24.604 C 225.364 24.546,224.418 24.120,222.976 23.659 C 220.219 22.776,218.786 22.577,220.355 23.296 M172.552 25.146 C 171.307 25.716,172.051 25.717,173.365 25.147 C 173.935 24.899,174.194 24.702,173.940 24.709 C 173.685 24.717,173.061 24.913,172.552 25.146 M226.677 25.135 C 227.101 25.377,227.656 25.581,227.911 25.589 C 228.165 25.596,228.771 25.809,229.257 26.062 C 229.742 26.315,230.367 26.515,230.644 26.505 C 230.922 26.495,230.110 26.078,228.841 25.580 C 226.377 24.611,225.415 24.413,226.677 25.135 M169.411 26.174 C 168.702 26.457,168.019 26.789,167.895 26.913 C 167.771 27.038,167.454 27.140,167.192 27.140 C 166.265 27.140,156.467 32.198,152.968 34.482 C 145.869 39.118,137.465 46.745,132.513 53.045 C 131.379 54.487,130.330 55.818,130.181 56.002 C 128.231 58.402,122.781 67.627,123.617 67.110 C 123.815 66.988,124.332 66.167,124.767 65.287 C 125.201 64.406,125.824 63.269,126.151 62.760 C 126.477 62.251,126.885 61.557,127.057 61.218 C 127.369 60.601,127.933 59.689,128.379 59.076 C 140.141 42.935,152.086 33.353,168.389 26.983 C 170.642 26.103,171.658 25.610,171.164 25.637 C 170.910 25.650,170.121 25.892,169.411 26.174 M231.920 26.962 C 232.344 27.217,232.888 27.431,233.129 27.437 C 233.370 27.443,233.813 27.670,234.114 27.942 C 234.414 28.214,234.834 28.378,235.047 28.307 C 235.454 28.172,233.237 27.027,231.920 26.693 L 231.149 26.497 231.920 26.962 M235.646 28.501 C 235.717 28.572,237.648 29.585,239.938 30.752 C 251.012 36.398,262.298 46.064,269.770 56.301 C 269.901 56.479,270.146 56.838,270.316 57.098 C 270.486 57.358,271.315 58.599,272.158 59.857 C 274.191 62.888,274.041 62.621,277.053 68.620 C 278.500 71.503,279.918 74.593,280.203 75.487 C 280.488 76.380,280.844 77.186,280.993 77.278 C 282.031 77.919,275.977 65.031,273.332 60.966 C 265.785 49.370,256.380 40.089,245.246 33.248 C 242.327 31.455,234.950 27.807,235.646 28.501 M121.833 70.238 C 120.501 72.956,119.244 76.175,118.068 79.877 C 117.717 80.979,117.261 82.298,117.053 82.806 C 115.935 85.541,113.683 97.749,114.200 98.266 C 114.401 98.467,115.035 94.748,115.035 93.369 C 115.035 92.760,115.242 91.384,115.496 90.310 C 115.750 89.236,116.181 87.386,116.453 86.199 C 116.726 85.012,117.142 83.603,117.379 83.068 C 117.616 82.534,117.810 81.865,117.810 81.583 C 117.810 81.301,117.971 80.770,118.167 80.403 C 118.363 80.037,118.629 79.317,118.758 78.804 C 119.308 76.614,121.124 72.248,122.972 68.676 C 123.219 68.197,123.362 67.746,123.288 67.673 C 123.215 67.599,122.560 68.754,121.833 70.238 M281.278 78.083 C 281.261 78.719,281.848 80.321,282.030 80.139 C 282.103 80.066,281.966 79.457,281.727 78.785 C 281.487 78.113,281.285 77.797,281.278 78.083 M282.217 80.956 C 282.218 81.594,283.049 83.662,283.085 83.115 C 283.096 82.945,282.906 82.251,282.661 81.573 C 282.417 80.894,282.217 80.617,282.217 80.956 M283.288 84.503 C 283.382 85.096,283.573 85.860,283.712 86.199 C 284.136 87.232,284.654 90.054,284.979 93.101 C 285.149 94.692,285.433 96.219,285.609 96.493 C 285.847 96.863,285.879 96.673,285.731 95.759 C 285.622 95.081,285.421 93.554,285.287 92.367 C 284.992 89.773,284.238 86.348,283.590 84.657 L 283.117 83.423 283.288 84.503 M286.045 107.170 C 286.045 116.424,286.061 116.725,286.313 112.000 C 286.465 109.141,286.465 104.871,286.313 102.131 C 286.066 97.681,286.045 98.077,286.045 107.170 M113.936 107.016 C 113.936 111.681,113.979 113.589,114.032 111.257 C 114.084 108.924,114.084 105.108,114.032 102.776 C 113.979 100.443,113.936 102.352,113.936 107.016 M114.289 117.194 C 114.790 121.909,115.000 123.397,115.468 125.520 C 116.336 129.457,118.685 136.764,118.719 135.631 C 118.728 135.340,118.544 134.646,118.310 134.089 C 117.030 131.039,115.164 123.082,114.891 119.507 C 114.800 118.319,114.587 116.931,114.417 116.423 C 114.167 115.669,114.143 115.812,114.289 117.194 M285.327 118.759 C 285.128 119.620,284.966 120.834,284.968 121.458 C 284.970 122.582,284.386 125.422,283.514 128.523 C 283.265 129.411,283.114 130.298,283.180 130.495 C 283.399 131.154,285.161 123.999,285.391 121.511 C 285.462 120.748,285.622 119.464,285.747 118.658 C 286.048 116.721,285.783 116.784,285.327 118.759 M282.507 131.820 C 282.332 132.279,282.199 132.957,282.210 133.328 C 282.222 133.723,282.408 133.434,282.660 132.626 C 283.131 131.114,283.012 130.490,282.507 131.820 M281.598 134.726 C 281.414 135.068,281.260 135.601,281.255 135.909 C 281.249 136.217,281.041 136.738,280.792 137.067 C 280.543 137.397,280.345 137.952,280.351 138.301 C 280.360 138.761,280.494 138.638,280.837 137.857 C 281.955 135.308,282.511 133.020,281.598 134.726 M118.745 136.356 C 118.740 136.464,118.938 137.019,119.186 137.590 C 119.518 138.355,119.640 138.461,119.649 137.993 C 119.659 137.442,118.772 135.834,118.745 136.356 M119.805 139.437 C 120.124 140.551,122.212 144.660,122.376 144.496 C 122.455 144.417,122.293 144.006,122.016 143.583 C 121.738 143.159,121.511 142.617,121.511 142.377 C 121.511 142.137,121.318 141.781,121.081 141.584 C 120.844 141.388,120.561 140.751,120.452 140.169 C 120.343 139.588,120.105 139.020,119.924 138.908 C 119.706 138.773,119.666 138.952,119.805 139.437 M279.348 140.850 C 278.893 141.833,278.077 143.608,277.535 144.796 C 276.994 145.983,276.348 147.189,276.100 147.476 C 275.853 147.763,275.708 148.172,275.779 148.385 C 275.849 148.597,276.915 146.727,278.146 144.228 C 279.376 141.730,280.337 139.546,280.280 139.375 C 280.223 139.204,279.804 139.868,279.348 140.850 M123.381 146.955 C 123.381 147.124,123.585 147.532,123.834 147.862 C 124.083 148.191,124.287 148.321,124.287 148.152 C 124.287 147.982,124.083 147.574,123.834 147.245 C 123.585 146.915,123.381 146.785,123.381 146.955 M124.287 148.776 C 124.287 149.904,130.734 159.221,134.443 163.453 C 142.366 172.495,150.601 178.896,161.295 184.327 C 165.132 186.275,166.941 187.064,170.393 188.291 L 171.010 188.511 170.393 188.067 C 170.054 187.823,169.202 187.458,168.501 187.256 C 158.496 184.376,140.027 170.672,132.473 160.524 C 131.463 159.167,130.491 157.915,130.314 157.742 C 130.137 157.568,129.854 157.200,129.684 156.923 C 129.196 156.128,126.812 152.539,126.539 152.188 C 126.403 152.013,125.944 151.204,125.520 150.390 C 124.824 149.051,124.287 148.349,124.287 148.776 M274.436 150.663 C 272.259 154.323,271.459 155.517,268.653 159.291 C 265.996 162.863,257.259 171.736,253.662 174.513 C 252.305 175.561,251.050 176.534,250.872 176.675 C 247.513 179.342,237.289 185.055,232.561 186.907 C 231.980 187.134,231.670 187.375,231.871 187.442 C 232.357 187.604,242.524 182.562,245.644 180.612 C 254.764 174.911,264.081 166.204,270.410 157.470 C 272.637 154.395,275.810 149.261,275.607 149.059 C 275.532 148.984,275.005 149.706,274.436 150.663 M127.525 178.815 C 123.384 181.074,119.308 183.470,117.462 184.728 C 108.738 190.676,107.034 191.955,100.880 197.177 C 95.201 201.997,88.066 209.205,83.732 214.501 C 83.053 215.330,82.072 216.500,81.550 217.102 C 79.861 219.051,76.728 223.323,76.878 223.473 C 76.958 223.553,77.770 222.612,78.681 221.381 C 87.135 209.970,103.401 194.119,112.014 188.897 C 112.294 188.728,113.814 187.687,115.391 186.584 C 118.465 184.436,121.983 182.249,125.212 180.479 C 126.315 179.875,127.633 179.128,128.142 178.820 C 129.484 178.007,128.701 177.521,134.892 183.006 C 137.834 185.613,141.026 188.032,144.731 190.460 C 146.463 191.596,148.272 192.796,148.752 193.128 C 149.232 193.460,149.677 193.680,149.740 193.616 C 149.804 193.552,148.510 192.603,146.864 191.507 C 141.154 187.705,135.504 183.389,133.381 181.208 C 130.152 177.891,129.618 177.673,127.525 178.815 M269.943 178.387 C 269.568 178.595,268.249 179.727,267.013 180.903 C 262.926 184.790,258.621 188.033,251.156 192.849 C 249.947 193.629,246.690 195.383,243.919 196.748 C 241.147 198.112,239.075 199.229,239.313 199.229 C 240.230 199.229,251.056 193.610,251.298 193.008 C 251.354 192.868,251.569 192.753,251.775 192.753 C 251.981 192.753,252.420 192.539,252.751 192.278 C 253.083 192.017,254.477 191.074,255.849 190.183 C 257.221 189.292,258.784 188.222,259.321 187.805 C 263.227 184.773,265.588 182.805,267.849 180.693 C 270.980 177.768,270.212 177.636,278.354 182.509 C 291.217 190.207,303.620 200.451,312.973 211.103 C 314.760 213.138,316.304 214.873,316.404 214.958 C 316.985 215.451,321.944 221.877,323.110 223.646 C 324.495 225.749,325.058 226.368,325.058 225.788 C 325.058 225.619,324.931 225.401,324.776 225.306 C 324.621 225.210,323.870 224.196,323.107 223.052 C 322.345 221.908,321.396 220.570,320.999 220.079 C 320.047 218.901,318.483 216.979,317.088 215.273 C 310.038 206.645,294.628 192.367,288.289 188.589 C 288.004 188.419,286.897 187.668,285.829 186.919 C 282.160 184.348,279.469 182.581,278.748 182.271 C 278.351 182.100,277.818 181.820,277.564 181.649 C 276.530 180.953,271.021 177.951,270.830 177.979 C 270.717 177.996,270.318 178.180,269.943 178.387 M229.761 187.972 C 228.754 188.548,229.106 188.554,230.419 187.984 C 230.990 187.737,231.249 187.533,230.995 187.533 C 230.740 187.532,230.185 187.730,229.761 187.972 M172.244 188.906 C 173.789 189.463,174.000 189.461,173.015 188.897 C 172.591 188.655,171.966 188.458,171.627 188.459 C 171.288 188.461,171.565 188.662,172.244 188.906 M227.140 188.909 C 225.894 189.479,226.639 189.480,227.952 188.910 C 228.523 188.662,228.782 188.465,228.527 188.472 C 228.273 188.479,227.648 188.676,227.140 188.909 M175.019 189.832 C 176.565 190.388,176.775 190.386,175.790 189.823 C 175.366 189.580,174.742 189.383,174.402 189.385 C 174.063 189.386,174.341 189.587,175.019 189.832 M224.210 189.823 C 223.198 190.401,223.853 190.409,225.177 189.835 C 225.893 189.524,226.023 189.384,225.598 189.383 C 225.258 189.382,224.634 189.580,224.210 189.823 M177.795 190.757 C 179.401 191.335,180.260 191.319,178.916 190.736 C 178.345 190.488,177.582 190.291,177.220 190.299 C 176.794 190.308,176.997 190.469,177.795 190.757 M221.126 190.748 C 220.447 191.009,220.275 191.164,220.663 191.164 C 221.002 191.164,221.766 190.977,222.359 190.748 C 223.038 190.486,223.210 190.332,222.822 190.332 C 222.483 190.332,221.719 190.519,221.126 190.748 M181.496 191.680 C 183.504 192.238,184.646 192.233,183.192 191.673 C 182.598 191.444,181.627 191.256,181.033 191.255 C 180.024 191.252,180.054 191.280,181.496 191.680 M216.962 191.684 C 215.771 192.230,216.533 192.228,218.504 191.680 C 219.943 191.281,219.974 191.252,218.967 191.256 C 218.373 191.259,217.471 191.451,216.962 191.684 M185.968 192.416 C 186.901 192.548,188.288 192.751,189.052 192.866 C 190.215 193.042,190.315 193.021,189.668 192.735 C 189.244 192.548,187.857 192.346,186.584 192.286 C 184.462 192.185,184.412 192.196,185.968 192.416 M210.948 192.624 L 209.561 193.052 210.948 192.872 C 211.712 192.772,213.099 192.587,214.032 192.459 L 215.729 192.226 214.032 192.211 C 213.099 192.203,211.712 192.389,210.948 192.624 M193.986 193.380 C 195.089 193.504,197.864 193.606,200.154 193.606 C 202.444 193.606,205.220 193.504,206.322 193.380 C 207.564 193.241,205.217 193.155,200.154 193.155 C 195.091 193.155,192.744 193.241,193.986 193.380 M150.300 193.910 C 150.538 194.296,152.993 195.607,153.161 195.438 C 153.226 195.373,152.565 194.930,151.691 194.455 C 150.817 193.979,150.191 193.734,150.300 193.910 M153.585 195.663 C 153.585 195.861,158.592 198.335,158.724 198.202 C 158.836 198.091,154.075 195.528,153.755 195.528 C 153.662 195.528,153.585 195.589,153.585 195.663 M159.581 198.776 C 159.910 199.025,160.396 199.228,160.660 199.227 C 160.925 199.226,160.744 199.018,160.258 198.764 C 159.139 198.181,158.802 198.187,159.581 198.776 M161.740 199.701 C 162.069 199.950,162.624 200.149,162.973 200.142 C 163.442 200.133,163.336 200.012,162.571 199.680 C 161.263 199.112,160.971 199.120,161.740 199.701 M237.471 199.717 C 236.991 199.984,236.881 200.147,237.181 200.150 C 237.445 200.152,237.931 199.950,238.260 199.701 C 239.009 199.135,238.502 199.145,237.471 199.717 M164.207 200.600 C 164.536 200.864,165.022 201.068,165.286 201.055 C 165.702 201.034,165.704 201.007,165.305 200.859 C 165.050 200.765,164.564 200.560,164.225 200.404 C 163.618 200.125,163.618 200.128,164.207 200.600 M235.759 200.433 C 235.598 200.586,235.189 200.778,234.850 200.860 C 234.248 201.004,234.248 201.009,234.868 201.044 C 235.217 201.063,235.772 200.876,236.101 200.627 C 236.431 200.378,236.554 200.169,236.376 200.164 C 236.198 200.159,235.921 200.280,235.759 200.433 M166.538 201.542 C 166.962 201.784,167.683 201.988,168.139 201.994 C 168.596 202.000,169.048 202.133,169.145 202.289 C 169.242 202.446,169.770 202.667,170.320 202.780 C 171.259 202.975,172.499 203.331,175.790 204.353 C 176.554 204.589,177.525 204.767,177.949 204.746 C 178.559 204.717,178.591 204.682,178.103 204.582 C 177.171 204.391,170.365 202.380,167.287 201.385 C 165.956 200.955,165.631 201.023,166.538 201.542 M233.405 201.239 C 233.317 201.327,232.565 201.589,231.734 201.822 C 222.405 204.433,221.207 204.813,222.961 204.607 C 223.716 204.518,224.479 204.330,224.657 204.189 C 224.835 204.048,225.637 203.838,226.438 203.722 C 227.240 203.606,227.977 203.380,228.076 203.220 C 228.175 203.061,228.629 202.925,229.085 202.919 C 229.542 202.913,230.262 202.710,230.686 202.467 C 231.110 202.225,231.812 202.022,232.246 202.016 C 232.998 202.005,234.596 201.110,233.899 201.089 C 233.715 201.084,233.493 201.151,233.405 201.239 M179.527 205.062 C 179.802 205.238,180.843 205.469,181.841 205.576 C 182.838 205.682,184.339 205.963,185.175 206.200 C 186.012 206.437,187.330 206.612,188.105 206.590 L 189.514 206.550 187.785 206.327 C 186.834 206.205,185.929 206.027,185.775 205.931 C 185.621 205.836,184.457 205.605,183.187 205.417 C 181.918 205.229,180.463 205.000,179.954 204.909 C 179.238 204.780,179.142 204.815,179.527 205.062 M219.558 204.906 C 219.398 205.063,214.467 206.002,212.182 206.311 L 210.486 206.540 212.049 206.585 C 212.909 206.610,214.296 206.437,215.133 206.199 C 215.969 205.962,217.384 205.679,218.276 205.571 C 220.320 205.324,221.732 204.830,220.483 204.800 C 220.045 204.789,219.629 204.837,219.558 204.906 M191.756 207.025 C 192.881 207.347,207.526 207.356,208.385 207.036 C 208.759 206.897,205.009 206.785,199.987 206.785 C 194.997 206.785,191.292 206.893,191.756 207.025 M74.895 226.137 C 72.476 229.387,67.374 237.716,67.639 237.981 C 67.748 238.090,70.352 233.866,71.088 232.387 C 71.521 231.517,73.001 229.296,74.483 227.294 C 75.930 225.337,76.862 223.901,76.683 223.901 C 76.615 223.901,75.810 224.907,74.895 226.137 M325.829 227.461 C 326.856 228.819,327.097 229.190,328.488 231.548 C 329.017 232.447,329.516 233.116,329.596 233.035 C 329.884 232.748,326.143 226.982,325.366 226.516 C 325.112 226.363,325.320 226.788,325.829 227.461 M329.740 233.693 C 330.127 234.524,331.326 236.240,331.441 236.126 C 331.602 235.964,330.069 233.462,329.809 233.462 C 329.712 233.462,329.681 233.566,329.740 233.693 M332.460 238.142 C 332.460 238.459,334.069 241.207,334.186 241.090 C 334.328 240.949,333.199 238.704,332.772 238.277 C 332.600 238.105,332.460 238.044,332.460 238.142 M66.924 238.859 C 66.706 239.122,66.597 239.406,66.682 239.491 C 66.766 239.575,67.014 239.430,67.232 239.167 C 67.450 238.905,67.559 238.620,67.474 238.536 C 67.389 238.451,67.142 238.596,66.924 238.859 M66.011 240.646 C 65.568 241.352,64.017 244.458,61.585 249.507 C 60.001 252.795,57.293 259.400,57.459 259.567 C 57.588 259.696,58.021 258.797,58.742 256.901 C 59.857 253.970,61.590 250.179,64.367 244.592 C 66.447 240.407,67.011 239.053,66.011 240.646 M334.330 241.635 C 334.330 241.804,334.533 242.212,334.782 242.542 C 335.031 242.871,335.235 243.001,335.235 242.832 C 335.235 242.662,335.031 242.254,334.782 241.925 C 334.533 241.596,334.330 241.465,334.330 241.635 M338.011 249.047 C 338.011 249.138,338.635 250.514,339.399 252.104 C 340.162 253.694,340.791 255.181,340.796 255.408 C 340.805 255.783,341.712 257.225,341.712 256.864 C 341.712 256.515,340.177 252.827,339.239 250.922 C 338.325 249.066,338.011 248.586,338.011 249.047 M341.836 257.672 C 342.194 259.354,343.514 262.527,343.542 261.776 C 343.553 261.489,343.423 261.169,343.254 261.064 C 343.084 260.959,342.942 260.569,342.937 260.198 C 342.933 259.826,342.653 258.967,342.317 258.288 C 341.980 257.610,341.763 257.332,341.836 257.672 M57.008 260.601 C 56.908 261.025,56.721 261.650,56.594 261.989 C 56.396 262.517,56.438 262.505,56.883 261.907 C 57.170 261.523,57.357 260.899,57.298 260.520 C 57.194 259.853,57.184 259.856,57.008 260.601 M343.574 262.914 C 343.578 263.254,343.785 263.801,344.034 264.130 C 344.623 264.907,344.618 264.314,344.027 263.181 C 343.658 262.475,343.567 262.421,343.574 262.914 M55.904 263.710 C 55.695 264.268,55.579 264.780,55.647 264.848 C 55.867 265.068,56.480 263.669,56.380 263.175 C 56.323 262.893,56.128 263.113,55.904 263.710 M344.510 265.382 C 344.509 266.027,345.383 267.800,345.402 267.190 C 345.408 266.998,345.210 266.373,344.962 265.803 C 344.651 265.086,344.511 264.956,344.510 265.382 M54.947 266.414 C 54.726 267.151,54.605 267.815,54.679 267.889 C 54.914 268.124,55.572 266.224,55.458 265.637 C 55.390 265.286,55.198 265.578,54.947 266.414 M345.440 268.311 C 345.440 269.151,346.275 271.226,346.308 270.470 C 346.319 270.216,346.128 269.453,345.884 268.774 C 345.534 267.801,345.440 267.703,345.440 268.311 M54.046 269.605 C 53.542 271.505,53.564 271.745,54.141 270.639 C 54.403 270.137,54.574 269.374,54.523 268.942 C 54.448 268.317,54.351 268.451,54.046 269.605 M346.361 271.746 C 346.348 272.023,346.540 272.717,346.788 273.288 C 347.353 274.588,347.363 273.782,346.800 272.321 C 346.572 271.727,346.374 271.468,346.361 271.746 M53.074 273.274 C 52.580 274.922,52.822 275.165,53.354 273.554 C 53.578 272.874,53.692 272.248,53.607 272.163 C 53.522 272.078,53.282 272.578,53.074 273.274 M347.284 275.292 C 347.272 275.654,347.466 276.418,347.713 276.988 C 348.290 278.318,348.305 277.811,347.741 276.022 C 347.496 275.241,347.295 274.922,347.284 275.292 M52.351 276.176 C 52.232 276.685,52.055 277.448,51.957 277.872 C 51.837 278.387,51.941 278.289,52.270 277.575 C 52.541 276.987,52.719 276.224,52.665 275.879 C 52.589 275.390,52.520 275.456,52.351 276.176 M348.222 279.106 C 348.218 279.530,348.416 280.293,348.661 280.802 L 349.106 281.727 348.915 280.648 C 348.622 278.987,348.229 278.112,348.222 279.106 M51.081 281.419 C 50.150 285.475,49.960 286.444,49.985 287.029 C 50.029 288.075,50.840 285.437,50.863 284.172 C 50.876 283.481,51.106 282.272,51.374 281.486 C 51.642 280.699,51.813 279.807,51.754 279.503 C 51.695 279.200,51.392 280.062,51.081 281.419 M349.135 282.999 C 349.123 283.699,349.322 284.861,349.576 285.582 C 349.830 286.303,350.063 287.535,350.092 288.319 C 350.146 289.739,350.147 289.740,350.249 288.512 C 350.305 287.833,350.082 286.029,349.754 284.503 C 349.276 282.280,349.152 281.980,349.135 282.999 M58.057 289.821 C 59.372 289.878,61.523 289.878,62.837 289.821 C 64.152 289.763,63.076 289.715,60.447 289.715 C 57.818 289.715,56.742 289.763,58.057 289.821 M76.884 289.821 C 78.206 289.879,80.288 289.878,81.510 289.820 C 82.732 289.762,81.650 289.714,79.106 289.715 C 76.561 289.715,75.561 289.763,76.884 289.821 M95.388 289.821 C 96.710 289.879,98.792 289.878,100.014 289.820 C 101.236 289.762,100.154 289.714,97.610 289.715 C 95.066 289.715,94.066 289.763,95.388 289.821 M113.878 289.821 C 115.193 289.878,117.344 289.878,118.658 289.821 C 119.973 289.763,118.897 289.715,116.268 289.715 C 113.639 289.715,112.564 289.763,113.878 289.821 M132.705 289.821 C 134.027 289.879,136.109 289.878,137.331 289.820 C 138.553 289.762,137.471 289.714,134.927 289.715 C 132.382 289.715,131.383 289.763,132.705 289.821 M151.209 289.821 C 152.531 289.879,154.613 289.878,155.835 289.820 C 157.057 289.762,155.975 289.714,153.431 289.715 C 150.887 289.715,149.887 289.763,151.209 289.821 M169.699 289.821 C 171.014 289.878,173.165 289.878,174.480 289.821 C 175.794 289.763,174.719 289.715,172.089 289.715 C 169.460 289.715,168.385 289.763,169.699 289.821 M188.526 289.821 C 189.848 289.879,191.930 289.878,193.152 289.820 C 194.374 289.762,193.292 289.714,190.748 289.715 C 188.204 289.715,187.204 289.763,188.526 289.821 M207.030 289.821 C 208.353 289.879,210.434 289.878,211.656 289.820 C 212.878 289.762,211.796 289.714,209.252 289.715 C 206.708 289.715,205.708 289.763,207.030 289.821 M225.520 289.821 C 226.835 289.878,228.986 289.878,230.301 289.821 C 231.615 289.763,230.540 289.715,227.911 289.715 C 225.281 289.715,224.206 289.763,225.520 289.821 M244.347 289.821 C 245.669 289.879,247.751 289.878,248.973 289.820 C 250.195 289.762,249.113 289.714,246.569 289.715 C 244.025 289.715,243.025 289.763,244.347 289.821 M262.851 289.821 C 264.174 289.879,266.255 289.878,267.477 289.820 C 268.699 289.762,267.618 289.714,265.073 289.715 C 262.529 289.715,261.529 289.763,262.851 289.821 M281.342 289.821 C 282.656 289.878,284.807 289.878,286.122 289.821 C 287.436 289.763,286.361 289.715,283.732 289.715 C 281.103 289.715,280.027 289.763,281.342 289.821 M300.168 289.821 C 301.491 289.879,303.572 289.878,304.794 289.820 C 306.016 289.762,304.934 289.714,302.390 289.715 C 299.846 289.715,298.846 289.763,300.168 289.821 M318.673 289.821 C 319.995 289.879,322.077 289.878,323.299 289.820 C 324.521 289.762,323.439 289.714,320.894 289.715 C 318.350 289.715,317.350 289.763,318.673 289.821 M337.163 289.821 C 338.477 289.878,340.628 289.878,341.943 289.821 C 343.258 289.763,342.182 289.715,339.553 289.715 C 336.924 289.715,335.848 289.763,337.163 289.821 " stroke="none" fill="#c4c4c3" fill-rule="evenodd"></path><path id="path3" d="M197.625 20.584 C 199.032 20.642,201.252 20.641,202.559 20.584 C 203.865 20.526,202.714 20.479,200.000 20.480 C 197.286 20.480,196.217 20.527,197.625 20.584 M192.213 20.884 C 192.679 20.955,193.443 20.955,193.909 20.884 C 194.375 20.813,193.994 20.755,193.061 20.755 C 192.128 20.755,191.746 20.813,192.213 20.884 M206.091 20.884 C 206.557 20.955,207.321 20.955,207.787 20.884 C 208.254 20.813,207.872 20.755,206.939 20.755 C 206.006 20.755,205.625 20.813,206.091 20.884 M184.194 21.801 C 184.491 21.878,184.977 21.878,185.274 21.801 C 185.571 21.723,185.328 21.660,184.734 21.660 C 184.140 21.660,183.897 21.723,184.194 21.801 M215.574 21.898 C 218.255 22.490,218.864 22.544,217.425 22.062 C 216.662 21.807,215.690 21.611,215.266 21.628 C 214.660 21.653,214.726 21.710,215.574 21.898 M181.958 22.205 C 181.339 22.404,181.308 22.454,181.804 22.461 C 182.143 22.466,182.699 22.351,183.038 22.205 C 183.824 21.867,183.013 21.867,181.958 22.205 M178.566 22.976 C 177.126 23.531,177.748 23.541,179.491 22.992 C 180.254 22.752,180.601 22.556,180.262 22.558 C 179.923 22.559,179.160 22.747,178.566 22.976 M220.663 22.983 C 222.607 23.523,223.154 23.520,221.742 22.976 C 221.149 22.747,220.316 22.559,219.892 22.558 C 219.446 22.556,219.771 22.735,220.663 22.983 M164.842 27.756 C 163.645 28.549,164.054 28.549,165.532 27.756 C 166.165 27.417,166.477 27.140,166.225 27.142 C 165.973 27.143,165.351 27.419,164.842 27.756 M234.541 27.756 C 235.050 28.093,235.605 28.369,235.775 28.369 C 235.944 28.369,235.667 28.093,235.158 27.756 C 234.649 27.419,234.094 27.144,233.924 27.144 C 233.755 27.144,234.032 27.419,234.541 27.756 M242.251 31.359 C 242.678 31.790,247.340 34.562,247.340 34.384 C 247.340 34.220,245.741 33.199,243.485 31.921 C 242.637 31.440,242.082 31.187,242.251 31.359 M152.136 34.657 C 149.298 36.567,148.262 37.373,149.422 36.772 C 149.966 36.490,155.077 33.105,155.410 32.806 C 155.481 32.743,155.411 32.704,155.256 32.720 C 155.100 32.735,153.696 33.607,152.136 34.657 M248.111 34.989 C 248.450 35.266,249.977 36.409,251.503 37.528 C 253.030 38.647,254.690 39.925,255.193 40.368 C 255.695 40.810,255.903 40.908,255.656 40.586 C 255.160 39.940,249.888 35.891,248.419 35.028 C 247.689 34.599,247.624 34.590,248.111 34.989 M145.558 39.500 C 144.291 40.530,143.208 41.537,143.153 41.735 C 143.086 41.978,143.136 41.991,143.307 41.773 C 143.447 41.594,144.568 40.642,145.798 39.656 C 147.781 38.067,148.249 37.625,147.948 37.625 C 147.901 37.625,146.825 38.469,145.558 39.500 M256.559 41.411 C 257.087 42.083,260.601 45.147,260.601 44.935 C 260.601 44.851,259.595 43.900,258.365 42.823 C 257.136 41.745,256.323 41.110,256.559 41.411 M140.930 43.716 L 139.244 45.490 141.018 43.804 C 142.665 42.238,142.932 41.943,142.703 41.943 C 142.655 41.943,141.857 42.741,140.930 43.716 M136.583 48.034 C 133.231 51.498,127.174 59.214,127.807 59.214 C 127.890 59.214,128.410 58.554,128.962 57.749 C 129.515 56.943,130.076 56.145,130.210 55.975 C 133.451 51.857,135.008 50.006,136.891 48.034 C 138.145 46.719,139.110 45.644,139.034 45.644 C 138.958 45.644,137.855 46.719,136.583 48.034 M264.965 49.822 C 266.551 51.695,268.241 53.708,268.721 54.293 C 269.518 55.267,269.512 55.241,268.647 53.991 C 267.632 52.524,265.197 49.653,263.268 47.649 C 262.615 46.970,263.378 47.948,264.965 49.822 M270.911 57.440 C 272.792 60.082,273.426 60.862,272.730 59.676 C 271.985 58.409,269.868 55.513,269.686 55.513 C 269.605 55.513,270.156 56.380,270.911 57.440 M126.649 60.678 C 125.429 62.613,123.978 65.261,123.978 65.553 C 123.978 65.705,124.573 64.792,125.300 63.524 C 126.027 62.256,126.876 60.837,127.186 60.370 C 127.496 59.904,127.667 59.522,127.564 59.522 C 127.462 59.522,127.050 60.042,126.649 60.678 M274.200 62.298 C 275.094 63.682,275.097 63.686,275.095 63.351 C 275.094 63.196,274.736 62.652,274.298 62.143 L 273.503 61.218 274.200 62.298 M278.797 71.488 C 278.797 71.624,278.926 71.867,279.084 72.028 C 279.242 72.189,279.651 73.015,279.992 73.863 C 280.334 74.711,280.622 75.235,280.631 75.028 C 280.652 74.552,279.199 71.241,278.968 71.241 C 278.874 71.241,278.797 71.352,278.797 71.488 M120.293 72.860 C 119.664 74.317,119.191 75.797,119.431 75.559 C 119.677 75.315,121.146 71.550,120.995 71.550 C 120.921 71.550,120.605 72.140,120.293 72.860 M118.786 76.960 C 118.269 78.094,118.367 78.336,118.926 77.305 C 119.187 76.824,119.343 76.372,119.272 76.301 C 119.202 76.231,118.983 76.527,118.786 76.960 M117.128 81.889 C 117.033 82.224,116.861 82.776,116.746 83.115 C 116.631 83.454,116.763 83.342,117.039 82.865 C 117.315 82.388,117.487 81.837,117.421 81.639 C 117.355 81.442,117.224 81.554,117.128 81.889 M283.472 84.040 C 283.471 84.210,283.657 84.834,283.886 85.428 C 284.115 86.022,284.306 86.299,284.311 86.045 C 284.316 85.790,284.130 85.166,283.897 84.657 C 283.664 84.148,283.473 83.870,283.472 84.040 M115.844 85.594 C 115.738 85.870,115.663 86.327,115.678 86.610 C 115.693 86.893,115.827 86.715,115.976 86.214 C 116.267 85.241,116.164 84.759,115.844 85.594 M115.079 89.327 C 114.860 90.267,114.738 91.094,114.808 91.164 C 114.878 91.234,115.119 90.526,115.343 89.591 C 115.567 88.657,115.689 87.830,115.614 87.754 C 115.538 87.679,115.297 88.387,115.079 89.327 M284.700 88.820 C 284.700 89.075,284.820 89.561,284.965 89.900 C 285.132 90.289,285.230 90.346,285.230 90.054 C 285.230 89.800,285.111 89.314,284.965 88.975 C 284.798 88.586,284.700 88.529,284.700 88.820 M285.362 92.675 C 285.364 93.524,285.424 93.834,285.495 93.365 C 285.566 92.896,285.564 92.202,285.491 91.823 C 285.418 91.444,285.360 91.827,285.362 92.675 M114.506 93.292 C 114.508 94.140,114.568 94.451,114.639 93.982 C 114.710 93.513,114.708 92.819,114.635 92.440 C 114.562 92.061,114.504 92.444,114.506 93.292 M286.353 107.016 C 286.353 111.342,286.442 114.048,286.551 113.030 C 286.660 112.012,286.749 109.306,286.749 107.016 C 286.749 104.726,286.660 102.020,286.551 101.002 C 286.442 99.985,286.353 102.691,286.353 107.016 M113.621 107.170 C 113.622 110.393,113.667 111.670,113.723 110.007 C 113.778 108.344,113.778 105.708,113.722 104.147 C 113.666 102.587,113.621 103.948,113.621 107.170 M113.873 116.268 C 113.873 116.862,113.936 117.105,114.014 116.808 C 114.091 116.511,114.091 116.025,114.014 115.729 C 113.936 115.432,113.873 115.675,113.873 116.268 M114.510 120.894 C 114.510 121.827,114.568 122.209,114.639 121.742 C 114.709 121.276,114.709 120.513,114.639 120.046 C 114.568 119.580,114.510 119.961,114.510 120.894 M285.345 122.128 C 285.345 122.722,285.409 122.965,285.486 122.668 C 285.564 122.371,285.564 121.885,285.486 121.588 C 285.409 121.291,285.345 121.534,285.345 122.128 M114.772 123.207 C 114.761 123.377,114.943 124.279,115.176 125.212 C 115.409 126.145,115.600 126.561,115.602 126.137 C 115.604 125.390,114.810 122.588,114.772 123.207 M284.727 125.040 C 284.519 125.818,284.358 126.695,284.369 126.990 C 284.380 127.284,284.592 126.772,284.839 125.852 C 285.086 124.931,285.247 124.054,285.197 123.902 C 285.146 123.750,284.935 124.263,284.727 125.040 M115.656 127.551 C 115.659 127.876,115.802 128.350,115.974 128.604 C 116.203 128.942,116.231 128.818,116.080 128.142 C 115.826 127.008,115.650 126.762,115.656 127.551 M278.693 143.063 C 278.241 143.892,277.875 144.691,277.878 144.837 C 277.881 144.984,278.297 144.353,278.804 143.434 C 279.310 142.516,279.677 141.717,279.619 141.659 C 279.561 141.602,279.144 142.233,278.693 143.063 M123.990 148.651 C 123.994 148.905,124.202 149.383,124.451 149.712 C 125.033 150.482,125.030 150.196,124.443 149.071 C 124.190 148.586,123.986 148.396,123.990 148.651 M275.738 148.871 C 275.724 149.077,274.937 150.534,273.989 152.109 C 273.040 153.684,272.464 154.765,272.709 154.510 C 273.541 153.645,276.051 149.200,275.906 148.848 C 275.805 148.601,275.755 148.608,275.738 148.871 M126.837 153.719 C 127.385 154.656,127.932 155.426,128.052 155.430 C 128.297 155.436,126.471 152.404,126.087 152.166 C 125.951 152.083,126.289 152.781,126.837 153.719 M270.269 157.645 C 268.330 160.353,265.682 163.603,263.406 166.070 C 262.627 166.914,262.386 167.261,262.870 166.841 C 263.966 165.890,268.226 160.962,269.425 159.259 C 269.915 158.564,270.774 157.349,271.333 156.561 C 271.893 155.772,272.288 155.127,272.211 155.127 C 272.135 155.127,271.261 156.260,270.269 157.645 M131.065 159.744 C 131.424 160.248,131.875 160.757,132.067 160.876 C 132.260 160.995,132.029 160.583,131.554 159.960 C 130.523 158.609,130.134 158.437,131.065 159.744 M133.889 163.088 C 134.799 164.158,136.079 165.616,136.733 166.326 L 137.922 167.618 136.969 166.384 C 136.445 165.705,135.165 164.248,134.125 163.146 L 132.235 161.141 133.889 163.088 M258.443 170.899 C 257.340 171.924,255.362 173.605,254.048 174.635 C 251.603 176.549,250.863 177.310,252.660 176.061 C 254.752 174.606,261.099 168.962,260.578 169.020 C 260.506 169.028,259.545 169.873,258.443 170.899 M139.733 169.415 C 139.803 169.471,140.555 170.125,141.403 170.867 L 142.945 172.218 141.570 170.766 C 140.814 169.967,140.062 169.314,139.900 169.314 C 139.737 169.314,139.662 169.360,139.733 169.415 M143.099 172.297 C 143.099 172.547,143.822 173.184,146.546 175.334 C 147.508 176.094,148.400 176.715,148.529 176.715 C 148.657 176.715,148.023 176.164,147.120 175.490 C 146.217 174.816,144.942 173.770,144.289 173.165 C 143.635 172.560,143.099 172.169,143.099 172.297 M250.906 176.993 C 250.812 177.145,249.416 178.138,247.804 179.198 C 244.909 181.102,243.786 182.049,246.029 180.693 C 248.765 179.040,251.805 176.715,251.231 176.715 C 251.147 176.715,251.000 176.840,250.906 176.993 M149.730 177.736 C 150.774 178.616,152.352 179.603,152.352 179.376 C 152.352 179.294,151.762 178.829,151.041 178.344 C 149.136 177.060,148.676 176.847,149.730 177.736 M270.026 178.113 C 269.697 178.362,269.565 178.566,269.733 178.566 C 269.901 178.566,270.204 178.401,270.406 178.199 C 270.689 177.915,271.053 177.990,272.009 178.527 C 273.538 179.386,273.659 179.179,272.149 178.288 C 270.860 177.528,270.806 177.523,270.026 178.113 M130.008 178.181 C 130.169 178.309,130.856 178.899,131.534 179.492 L 132.768 180.570 131.549 179.259 C 130.878 178.539,130.191 177.949,130.022 177.949 C 129.831 177.949,129.825 178.037,130.008 178.181 M267.222 180.493 L 265.382 182.421 267.309 180.580 C 268.369 179.568,269.237 178.700,269.237 178.653 C 269.237 178.425,268.932 178.703,267.222 180.493 M152.660 179.648 C 152.660 179.812,154.259 180.834,156.515 182.112 C 157.363 182.592,157.918 182.845,157.749 182.674 C 157.322 182.243,152.660 179.471,152.660 179.648 M133.860 181.561 C 133.876 181.858,138.856 185.965,141.226 187.636 C 144.076 189.646,149.688 193.408,150.347 193.750 C 151.531 194.364,150.558 193.640,147.226 191.427 C 141.885 187.879,139.746 186.316,136.700 183.735 C 135.131 182.406,133.853 181.428,133.860 181.561 M241.557 182.893 C 240.837 183.213,240.247 183.543,240.247 183.626 C 240.247 183.828,242.480 182.903,242.853 182.547 C 243.247 182.170,243.089 182.212,241.557 182.893 M264.781 182.548 C 264.358 183.234,258.740 187.530,255.359 189.753 C 253.408 191.036,251.465 192.384,251.041 192.748 L 250.270 193.410 251.195 192.809 C 256.514 189.349,259.359 187.359,261.813 185.381 C 263.413 184.092,264.866 182.941,265.043 182.823 C 265.219 182.705,265.278 182.523,265.172 182.417 C 265.067 182.312,264.891 182.371,264.781 182.548 M279.577 182.682 C 281.131 183.743,281.881 184.173,281.881 184.002 C 281.881 183.785,279.534 182.267,279.197 182.267 C 279.071 182.267,279.242 182.454,279.577 182.682 M117.194 184.541 C 116.091 185.268,114.985 186.130,114.736 186.455 C 114.363 186.942,114.417 186.930,115.044 186.387 C 115.463 186.024,116.604 185.222,117.579 184.604 C 118.554 183.987,119.352 183.416,119.352 183.337 C 119.352 183.118,119.342 183.124,117.194 184.541 M282.190 184.205 C 282.190 184.294,282.884 184.866,283.732 185.476 C 284.580 186.085,285.273 186.480,285.272 186.353 C 285.270 186.226,284.750 185.782,284.115 185.366 C 283.480 184.951,282.787 184.483,282.575 184.326 C 282.363 184.170,282.190 184.115,282.190 184.205 M164.618 186.277 C 165.173 186.616,165.796 186.893,166.001 186.893 C 166.207 186.893,165.857 186.615,165.224 186.276 C 163.735 185.478,163.309 185.479,164.618 186.277 M234.850 186.297 C 234.341 186.623,234.063 186.889,234.233 186.889 C 234.402 186.889,234.958 186.613,235.466 186.276 C 235.975 185.939,236.253 185.673,236.083 185.684 C 235.914 185.695,235.359 185.971,234.850 186.297 M111.327 188.622 C 104.735 192.962,92.419 204.075,85.881 211.582 C 81.829 216.233,79.354 219.327,81.463 217.104 C 82.032 216.504,83.053 215.334,83.732 214.503 C 90.678 206.003,103.538 194.109,111.411 188.903 C 112.965 187.876,113.409 187.510,113.100 187.510 C 113.054 187.510,112.256 188.010,111.327 188.622 M229.607 188.292 C 229.098 188.525,228.890 188.717,229.144 188.718 C 229.399 188.720,229.954 188.523,230.378 188.281 C 231.353 187.723,230.832 187.731,229.607 188.292 M289.129 188.965 C 289.298 189.156,290.845 190.398,292.566 191.726 C 301.070 198.286,310.997 207.818,317.088 215.273 C 317.709 216.032,318.717 217.258,319.327 217.997 C 319.938 218.736,320.565 219.568,320.720 219.845 C 320.875 220.123,321.069 220.281,321.150 220.198 C 321.319 220.024,318.748 216.782,314.971 212.408 C 309.438 206.000,299.003 196.223,292.367 191.232 C 289.090 188.767,288.724 188.510,289.129 188.965 M177.795 191.039 C 178.304 191.288,179.067 191.483,179.491 191.473 C 180.201 191.457,180.188 191.436,179.337 191.202 C 177.098 190.589,176.812 190.559,177.795 191.039 M221.126 191.072 C 220.185 191.341,219.986 191.473,220.509 191.480 C 220.933 191.486,221.696 191.300,222.205 191.067 C 223.344 190.546,222.956 190.548,221.126 191.072 M181.187 191.827 C 181.527 191.973,182.012 192.092,182.267 192.092 C 182.558 192.092,182.501 191.994,182.113 191.827 C 181.773 191.682,181.288 191.562,181.033 191.562 C 180.742 191.562,180.799 191.660,181.187 191.827 M218.290 191.682 C 218.200 191.772,217.518 191.965,216.774 192.111 C 215.968 192.269,215.732 192.388,216.191 192.406 C 216.615 192.422,217.587 192.238,218.350 191.997 C 219.113 191.757,219.449 191.551,219.095 191.540 C 218.742 191.528,218.379 191.592,218.290 191.682 M185.068 192.555 C 185.139 192.617,186.029 192.744,187.047 192.839 C 188.197 192.946,188.605 192.915,188.126 192.758 C 187.365 192.509,184.819 192.340,185.068 192.555 M212.028 192.750 C 211.644 192.913,212.052 192.946,213.107 192.839 C 214.040 192.744,214.861 192.616,214.932 192.555 C 215.197 192.326,212.619 192.498,212.028 192.750 M190.208 193.279 C 190.590 193.352,191.214 193.352,191.596 193.279 C 191.978 193.205,191.665 193.145,190.902 193.145 C 190.139 193.145,189.827 193.205,190.208 193.279 M208.716 193.279 C 209.100 193.353,209.655 193.350,209.950 193.273 C 210.244 193.196,209.931 193.135,209.252 193.139 C 208.574 193.142,208.332 193.205,208.716 193.279 M194.968 193.724 C 195.921 193.992,204.484 193.999,205.153 193.733 C 205.443 193.618,203.109 193.524,199.967 193.524 C 196.825 193.524,194.576 193.614,194.968 193.724 M244.564 196.145 C 243.631 196.638,243.007 197.041,243.177 197.041 C 243.346 197.041,244.248 196.638,245.181 196.145 C 246.114 195.652,246.739 195.249,246.569 195.249 C 246.399 195.249,245.497 195.652,244.564 196.145 M154.845 195.954 C 155.231 196.306,158.504 197.911,158.359 197.677 C 158.265 197.524,157.488 197.048,156.632 196.618 C 155.224 195.910,154.504 195.643,154.845 195.954 M239.938 198.458 C 239.514 198.700,239.306 198.899,239.476 198.899 C 239.645 198.899,240.131 198.700,240.555 198.458 C 240.979 198.216,241.187 198.017,241.018 198.017 C 240.848 198.017,240.362 198.216,239.938 198.458 M164.071 200.308 C 164.495 200.551,164.981 200.749,165.150 200.749 C 165.320 200.749,165.112 200.551,164.688 200.308 C 164.264 200.066,163.778 199.868,163.608 199.868 C 163.439 199.868,163.647 200.066,164.071 200.308 M229.453 202.178 C 228.859 202.403,228.600 202.594,228.877 202.604 C 229.155 202.614,229.849 202.419,230.419 202.171 C 231.704 201.613,230.930 201.619,229.453 202.178 M176.057 204.021 C 177.414 204.610,178.048 204.600,176.912 204.007 C 176.426 203.754,175.801 203.552,175.524 203.559 C 175.246 203.565,175.486 203.774,176.057 204.021 M223.285 204.009 C 222.277 204.585,222.630 204.591,223.943 204.021 C 224.514 203.774,224.773 203.570,224.518 203.570 C 224.264 203.569,223.709 203.767,223.285 204.009 M184.143 205.507 C 184.214 205.567,184.757 205.706,185.351 205.815 C 186.110 205.954,186.293 205.923,185.968 205.710 C 185.550 205.436,183.837 205.245,184.143 205.507 M214.577 205.573 C 214.480 205.669,213.728 205.861,212.906 205.999 C 211.887 206.170,211.706 206.257,212.336 206.272 C 212.845 206.285,213.955 206.102,214.803 205.867 C 215.845 205.578,216.087 205.432,215.549 205.418 C 215.111 205.406,214.673 205.476,214.577 205.573 M186.970 206.226 C 187.267 206.304,187.753 206.304,188.049 206.226 C 188.346 206.149,188.103 206.085,187.510 206.085 C 186.916 206.085,186.673 206.149,186.970 206.226 M189.900 206.540 C 190.281 206.613,190.906 206.613,191.288 206.540 C 191.669 206.466,191.357 206.406,190.594 206.406 C 189.830 206.406,189.518 206.466,189.900 206.540 M209.024 206.540 C 209.408 206.614,209.963 206.611,210.258 206.534 C 210.553 206.457,210.239 206.397,209.561 206.400 C 208.882 206.403,208.641 206.467,209.024 206.540 M197.625 206.860 C 199.032 206.918,201.252 206.917,202.559 206.860 C 203.865 206.802,202.714 206.755,200.000 206.756 C 197.286 206.756,196.217 206.803,197.625 206.860 M78.763 220.278 C 77.961 221.338,77.172 222.379,77.011 222.591 C 76.849 222.803,76.787 222.976,76.872 222.976 C 76.957 222.976,77.810 221.935,78.767 220.663 C 79.725 219.391,80.444 218.350,80.365 218.350 C 80.286 218.350,79.565 219.217,78.763 220.278 M322.930 222.804 C 323.286 223.409,323.703 223.981,323.856 224.075 C 324.009 224.169,323.842 223.752,323.485 223.148 C 323.129 222.543,322.712 221.972,322.559 221.877 C 322.406 221.783,322.573 222.200,322.930 222.804 M75.770 224.544 C 75.293 225.208,74.964 225.752,75.040 225.752 C 75.253 225.752,76.869 223.567,76.747 223.444 C 76.687 223.385,76.248 223.880,75.770 224.544 M325.066 225.971 C 325.071 226.105,325.518 226.631,326.059 227.140 C 326.600 227.648,326.843 227.787,326.599 227.448 C 325.958 226.556,325.056 225.687,325.066 225.971 M73.797 227.217 C 73.308 227.853,72.649 228.790,72.332 229.298 C 72.016 229.807,71.556 230.536,71.310 230.918 C 71.063 231.299,70.933 231.611,71.020 231.611 C 71.106 231.611,71.635 230.883,72.194 229.992 C 72.754 229.102,73.613 227.853,74.103 227.217 C 74.593 226.581,74.925 226.060,74.840 226.060 C 74.755 226.060,74.286 226.581,73.797 227.217 M327.557 229.375 C 328.690 231.248,329.684 232.695,329.684 232.472 C 329.684 232.186,327.183 228.219,327.003 228.219 C 326.923 228.219,327.173 228.739,327.557 229.375 M339.998 252.504 C 340.383 253.311,340.776 254.179,340.872 254.433 C 340.968 254.688,341.057 254.740,341.070 254.550 C 341.104 254.078,339.910 251.416,339.571 251.206 C 339.421 251.114,339.614 251.698,339.998 252.504 M59.264 253.984 C 58.747 255.118,58.846 255.360,59.404 254.329 C 59.665 253.847,59.821 253.396,59.750 253.325 C 59.680 253.255,59.461 253.551,59.264 253.984 M341.118 255.097 C 341.105 255.207,341.506 256.248,342.009 257.410 C 342.512 258.571,342.917 259.314,342.911 259.059 C 342.898 258.581,341.160 254.740,341.118 255.097 M58.338 256.143 C 58.141 256.575,57.985 257.097,57.992 257.301 C 57.999 257.505,58.209 257.200,58.459 256.623 C 58.986 255.408,58.875 254.966,58.338 256.143 M57.413 258.610 C 57.216 259.043,57.060 259.564,57.067 259.768 C 57.073 259.972,57.284 259.667,57.534 259.090 C 58.061 257.875,57.950 257.433,57.413 258.610 M343.880 262.930 C 343.875 263.108,343.996 263.386,344.149 263.547 C 344.302 263.708,344.494 264.117,344.576 264.456 C 344.721 265.058,344.725 265.058,344.760 264.438 C 344.780 264.089,344.592 263.534,344.343 263.205 C 344.094 262.875,343.886 262.752,343.880 262.930 M55.563 263.853 C 55.366 264.286,55.210 264.807,55.216 265.011 C 55.223 265.215,55.433 264.910,55.684 264.333 C 56.211 263.118,56.099 262.676,55.563 263.853 M344.811 265.227 C 344.808 265.312,345.005 265.937,345.249 266.615 C 345.494 267.294,345.695 267.571,345.696 267.232 C 345.699 266.719,344.831 264.753,344.811 265.227 M54.623 266.491 C 54.434 267.034,54.288 267.700,54.300 267.972 C 54.311 268.244,54.513 267.847,54.749 267.090 C 55.242 265.507,55.139 265.013,54.623 266.491 M53.855 269.094 C 53.749 269.370,53.674 269.827,53.689 270.110 C 53.703 270.393,53.838 270.215,53.987 269.715 C 54.278 268.741,54.175 268.260,53.855 269.094 M51.058 280.048 C 50.749 281.238,50.559 282.273,50.634 282.348 C 50.709 282.424,51.024 281.512,51.332 280.322 C 51.641 279.132,51.832 278.097,51.756 278.022 C 51.681 277.946,51.367 278.858,51.058 280.048 M348.697 279.568 C 349.102 281.368,349.429 282.113,349.237 280.802 C 349.138 280.123,348.929 279.360,348.773 279.106 C 348.582 278.796,348.557 278.949,348.697 279.568 M349.488 282.961 C 349.484 283.300,349.659 284.271,349.877 285.120 C 350.095 285.968,350.277 286.384,350.281 286.045 C 350.285 285.705,350.109 284.734,349.891 283.886 C 349.673 283.038,349.492 282.621,349.488 282.961 M50.099 284.486 C 49.982 285.104,49.957 285.680,50.042 285.765 C 50.126 285.850,50.291 285.413,50.407 284.794 C 50.523 284.175,50.549 283.599,50.464 283.514 C 50.379 283.430,50.215 283.867,50.099 284.486 M51.437 289.819 C 52.333 289.882,53.721 289.881,54.521 289.818 C 55.321 289.754,54.588 289.703,52.891 289.704 C 51.195 289.705,50.541 289.757,51.437 289.819 M67.478 289.821 C 68.885 289.878,71.106 289.878,72.412 289.820 C 73.719 289.763,72.567 289.716,69.854 289.716 C 67.140 289.717,66.071 289.764,67.478 289.821 M85.982 289.821 C 87.390 289.878,89.610 289.878,90.917 289.820 C 92.223 289.763,91.072 289.716,88.358 289.716 C 85.644 289.717,84.575 289.764,85.982 289.821 M104.487 289.821 C 105.894 289.878,108.114 289.878,109.421 289.820 C 110.727 289.763,109.576 289.716,106.862 289.716 C 104.148 289.717,103.079 289.764,104.487 289.821 M123.299 289.821 C 124.707 289.878,126.927 289.878,128.234 289.820 C 129.540 289.763,128.389 289.716,125.675 289.716 C 122.961 289.717,121.892 289.764,123.299 289.821 M141.803 289.821 C 143.211 289.878,145.431 289.878,146.738 289.820 C 148.044 289.763,146.893 289.716,144.179 289.716 C 141.465 289.717,140.396 289.764,141.803 289.821 M160.308 289.821 C 161.715 289.878,163.936 289.878,165.242 289.820 C 166.549 289.763,165.397 289.716,162.683 289.716 C 159.969 289.717,158.900 289.764,160.308 289.821 M179.120 289.821 C 180.528 289.878,182.748 289.878,184.055 289.820 C 185.361 289.763,184.210 289.716,181.496 289.716 C 178.782 289.717,177.713 289.764,179.120 289.821 M197.625 289.821 C 199.032 289.878,201.252 289.878,202.559 289.820 C 203.865 289.763,202.714 289.716,200.000 289.716 C 197.286 289.717,196.217 289.764,197.625 289.821 M216.129 289.821 C 217.536 289.878,219.757 289.878,221.063 289.820 C 222.370 289.763,221.218 289.716,218.504 289.716 C 215.790 289.717,214.721 289.764,216.129 289.821 M234.941 289.821 C 236.349 289.878,238.569 289.878,239.876 289.820 C 241.182 289.763,240.031 289.716,237.317 289.716 C 234.603 289.717,233.534 289.764,234.941 289.821 M253.446 289.821 C 254.853 289.878,257.074 289.878,258.380 289.820 C 259.687 289.763,258.535 289.716,255.821 289.716 C 253.107 289.717,252.038 289.764,253.446 289.821 M271.950 289.821 C 273.357 289.878,275.578 289.878,276.884 289.820 C 278.191 289.763,277.039 289.716,274.325 289.716 C 271.611 289.717,270.542 289.764,271.950 289.821 M290.763 289.821 C 292.170 289.878,294.390 289.878,295.697 289.820 C 297.004 289.763,295.852 289.716,293.138 289.716 C 290.424 289.717,289.355 289.764,290.763 289.821 M309.267 289.821 C 310.674 289.878,312.895 289.878,314.201 289.820 C 315.508 289.763,314.356 289.716,311.642 289.716 C 308.928 289.717,307.859 289.764,309.267 289.821 M327.771 289.821 C 329.178 289.878,331.399 289.878,332.705 289.820 C 334.012 289.763,332.860 289.716,330.146 289.716 C 327.433 289.717,326.364 289.764,327.771 289.821 M345.654 289.819 C 346.550 289.882,347.938 289.881,348.738 289.818 C 349.538 289.754,348.805 289.703,347.109 289.704 C 345.412 289.705,344.758 289.757,345.654 289.819 " stroke="none" fill="#d0d0cf" fill-rule="evenodd"></path><path id="path4" d="M195.359 20.020 C 195.197 20.175,194.719 20.349,194.295 20.406 C 193.870 20.462,196.785 20.509,200.771 20.509 C 204.757 20.509,207.325 20.466,206.476 20.413 C 205.628 20.361,204.803 20.187,204.641 20.028 C 204.264 19.654,195.746 19.647,195.359 20.020 M187.818 20.971 C 187.394 21.107,186.006 21.237,184.734 21.260 C 183.368 21.285,182.105 21.482,181.650 21.742 C 181.226 21.985,180.391 22.188,179.795 22.194 C 179.199 22.200,178.227 22.456,177.636 22.763 C 177.045 23.070,175.971 23.508,175.249 23.738 C 174.527 23.967,173.991 24.210,174.058 24.277 C 174.125 24.343,175.479 23.990,177.067 23.492 C 180.270 22.487,183.926 21.705,186.739 21.424 C 187.756 21.322,189.283 21.127,190.131 20.992 L 191.673 20.745 190.131 20.735 C 189.283 20.729,188.242 20.836,187.818 20.971 M210.948 21.119 C 212.390 21.363,214.056 21.567,214.649 21.573 C 216.718 21.593,223.852 23.537,229.556 25.634 C 230.885 26.123,232.111 26.523,232.281 26.523 C 232.892 26.523,244.771 32.600,247.032 34.070 C 257.376 40.793,267.169 50.714,273.644 61.031 C 275.570 64.100,279.980 73.022,280.870 75.650 C 281.327 77.000,281.749 77.961,281.807 77.785 C 281.866 77.610,281.698 76.951,281.435 76.321 C 281.171 75.691,280.952 74.880,280.946 74.519 C 280.941 74.158,280.733 73.593,280.484 73.264 C 280.235 72.935,280.031 72.447,280.031 72.179 C 280.031 71.912,279.654 71.140,279.194 70.465 C 278.039 68.771,276.332 65.338,276.331 64.706 C 276.330 64.419,276.183 64.093,276.003 63.982 C 275.822 63.871,275.543 63.481,275.381 63.116 C 275.220 62.751,274.813 62.035,274.479 61.527 C 274.144 61.018,273.764 60.392,273.635 60.136 C 273.148 59.171,270.647 55.821,270.414 55.821 C 270.280 55.821,269.980 55.370,269.747 54.819 C 268.917 52.854,259.689 42.981,255.824 39.923 C 254.977 39.253,253.938 38.392,253.514 38.011 C 253.090 37.629,252.577 37.317,252.374 37.317 C 252.170 37.317,251.545 36.893,250.983 36.375 C 248.965 34.516,243.003 30.779,241.926 30.700 C 241.347 30.657,237.352 28.596,236.114 27.701 C 235.453 27.222,234.722 26.831,234.491 26.831 C 234.260 26.831,233.829 26.709,233.535 26.559 C 233.240 26.409,232.444 26.147,231.766 25.976 C 229.721 25.462,223.824 23.402,222.626 22.784 C 222.009 22.465,221.024 22.205,220.437 22.205 C 219.850 22.205,218.967 22.009,218.475 21.768 C 217.982 21.528,216.469 21.257,215.112 21.167 C 213.755 21.076,211.673 20.929,210.486 20.839 L 208.327 20.676 210.948 21.119 M171.935 24.838 C 170.690 25.408,171.435 25.409,172.748 24.839 C 173.319 24.591,173.577 24.394,173.323 24.401 C 173.069 24.408,172.444 24.605,171.935 24.838 M169.314 25.752 C 168.307 26.328,168.659 26.334,169.972 25.764 C 170.543 25.516,170.802 25.313,170.547 25.312 C 170.293 25.311,169.738 25.509,169.314 25.752 M166.538 26.523 C 166.538 26.692,166.251 26.831,165.900 26.831 C 165.549 26.831,164.681 27.223,163.972 27.701 C 162.068 28.987,158.234 30.891,157.929 30.702 C 157.783 30.612,157.493 30.745,157.283 30.998 C 157.074 31.251,156.766 31.457,156.599 31.457 C 156.432 31.457,155.679 31.874,154.925 32.382 C 154.171 32.891,153.501 33.308,153.435 33.308 C 153.178 33.308,149.095 36.206,148.805 36.595 C 148.635 36.822,148.048 37.251,147.500 37.548 C 145.904 38.413,140.032 43.484,139.551 44.413 C 139.157 45.177,138.630 45.689,136.698 47.186 C 135.929 47.782,132.388 51.876,131.124 53.631 C 129.394 56.033,130.083 55.611,132.190 52.978 C 134.844 49.661,143.918 40.653,146.492 38.780 C 147.594 37.977,148.705 37.128,148.959 36.893 C 149.479 36.412,154.556 33.071,155.744 32.427 C 158.771 30.788,166.284 27.131,167.232 26.835 C 168.629 26.400,168.699 26.214,167.463 26.214 C 166.955 26.214,166.538 26.353,166.538 26.523 M129.013 56.515 C 127.833 57.827,123.671 64.557,123.669 65.156 C 123.668 65.626,121.922 69.092,120.801 70.850 C 120.344 71.567,119.969 72.337,119.969 72.561 C 119.969 72.785,119.823 73.115,119.644 73.294 C 119.465 73.472,119.260 74.090,119.189 74.666 C 119.117 75.242,118.920 75.991,118.750 76.330 C 118.581 76.669,117.939 78.473,117.323 80.339 C 116.708 82.205,116.011 84.039,115.774 84.415 C 115.537 84.790,115.343 85.424,115.343 85.824 C 115.343 86.223,115.145 87.234,114.902 88.070 C 114.660 88.907,114.384 90.424,114.290 91.442 C 114.092 93.588,114.363 92.824,115.165 88.975 C 115.614 86.817,117.267 81.499,119.525 74.942 C 120.544 71.986,125.429 62.505,127.564 59.341 C 130.122 55.552,130.444 54.925,129.013 56.515 M281.930 78.489 C 281.929 78.658,282.115 79.283,282.344 79.877 C 282.572 80.470,282.764 80.748,282.769 80.493 C 282.774 80.239,282.588 79.614,282.355 79.106 C 282.122 78.597,281.931 78.319,281.930 78.489 M282.910 81.419 C 282.972 81.673,283.376 83.061,283.806 84.503 C 284.857 88.020,285.225 89.717,285.616 92.830 C 286.451 99.486,286.484 99.670,286.304 96.685 C 285.977 91.277,285.689 89.084,285.094 87.503 C 284.854 86.864,284.657 85.937,284.657 85.444 C 284.657 84.950,284.449 84.339,284.194 84.084 C 283.940 83.830,283.725 83.438,283.718 83.214 C 283.710 82.990,283.500 82.390,283.251 81.881 C 283.001 81.372,282.848 81.164,282.910 81.419 M113.987 94.526 C 113.235 98.319,112.625 110.602,113.121 111.944 C 113.303 112.434,113.459 110.176,113.581 105.303 C 113.683 101.241,113.921 97.112,114.111 96.126 C 114.301 95.141,114.405 94.100,114.344 93.813 C 114.282 93.527,114.121 93.847,113.987 94.526 M286.662 107.016 C 286.662 111.172,286.704 113.913,286.756 113.107 C 286.807 112.301,286.981 111.642,287.141 111.642 C 287.311 111.642,287.433 109.716,287.433 107.016 C 287.433 104.317,287.311 102.390,287.141 102.390 C 286.981 102.390,286.807 101.731,286.756 100.925 C 286.704 100.120,286.662 102.860,286.662 107.016 M113.651 115.497 C 113.810 119.711,114.401 124.779,114.899 126.188 C 115.143 126.881,115.343 127.791,115.343 128.210 C 115.343 128.629,115.551 129.340,115.804 129.791 C 116.058 130.241,116.740 132.066,117.319 133.847 C 117.898 135.628,118.587 137.588,118.850 138.203 C 119.113 138.817,119.246 139.402,119.146 139.503 C 119.045 139.603,119.190 140.162,119.466 140.745 C 119.743 141.328,119.969 141.910,119.969 142.038 C 119.969 142.166,120.342 142.759,120.798 143.356 C 121.687 144.522,123.667 148.289,123.669 148.817 C 123.670 149.221,124.530 150.885,125.612 152.577 C 126.070 153.294,126.446 154.011,126.446 154.170 C 126.446 154.329,126.550 154.505,126.677 154.562 C 126.804 154.618,127.286 155.220,127.747 155.898 C 128.208 156.577,129.006 157.591,129.520 158.153 C 130.034 158.715,130.455 159.306,130.455 159.467 C 130.455 161.016,146.202 176.715,147.756 176.715 C 148.254 176.715,148.054 176.475,146.763 175.526 C 142.090 172.089,134.381 164.176,130.346 158.674 C 129.227 157.147,128.197 155.759,128.058 155.590 C 127.543 154.959,123.978 148.964,123.978 148.726 C 123.978 148.499,122.259 145.034,120.880 142.483 C 120.263 141.340,118.120 135.455,116.726 131.072 C 115.147 126.108,114.648 123.393,113.801 115.189 L 113.547 112.722 113.651 115.497 M286.100 116.808 C 285.672 122.085,284.790 127.253,283.980 129.221 C 283.806 129.645,283.344 131.033,282.954 132.305 C 282.044 135.270,280.685 139.248,280.109 140.632 C 279.419 142.291,276.615 147.843,276.301 148.173 C 276.147 148.334,276.022 148.641,276.022 148.856 C 276.022 149.551,271.940 156.022,270.338 157.868 L 269.699 158.603 270.345 158.268 C 270.976 157.940,272.309 156.359,272.732 155.436 C 272.849 155.181,273.186 154.601,273.481 154.146 C 275.167 151.547,276.415 149.364,276.447 148.959 C 276.468 148.705,276.866 147.847,277.332 147.054 C 277.799 146.260,278.180 145.483,278.180 145.327 C 278.180 145.170,278.597 144.468,279.106 143.765 C 279.614 143.063,280.031 142.309,280.031 142.091 C 280.031 141.873,280.221 141.421,280.453 141.086 C 280.686 140.752,280.947 139.992,281.035 139.399 C 281.122 138.805,281.761 136.723,282.455 134.773 C 283.148 132.822,283.719 130.995,283.723 130.712 C 283.728 130.429,283.896 130.143,284.097 130.076 C 284.962 129.788,287.255 114.726,286.433 114.726 C 286.343 114.726,286.193 115.663,286.100 116.808 M268.157 160.911 C 265.120 164.847,254.755 174.936,252.519 176.133 C 252.074 176.371,251.958 176.559,252.206 176.641 C 253.594 177.104,270.817 159.886,269.828 159.024 C 269.757 158.963,269.005 159.812,268.157 160.911 M148.681 177.255 C 149.374 178.345,157.744 183.763,158.133 183.374 C 158.228 183.278,158.736 183.464,159.261 183.787 C 162.439 185.742,166.834 187.964,167.341 187.873 C 167.528 187.839,168.597 188.156,169.715 188.577 C 173.147 189.869,175.534 190.628,175.844 190.525 C 176.006 190.470,174.152 189.764,171.724 188.954 C 166.242 187.126,166.130 187.076,157.653 182.686 C 154.626 181.119,148.959 177.414,148.959 177.003 C 148.959 176.845,148.819 176.715,148.648 176.715 C 148.451 176.715,148.463 176.914,148.681 177.255 M249.961 177.986 C 246.977 180.348,233.885 187.491,232.490 187.518 C 231.910 187.529,229.515 188.688,230.008 188.718 C 230.228 188.732,230.822 188.529,231.327 188.268 C 231.833 188.007,232.373 187.871,232.529 187.967 C 232.850 188.166,236.854 186.351,236.854 186.007 C 236.854 185.814,238.771 184.860,243.022 182.939 C 245.831 181.670,253.375 176.211,251.588 176.740 C 251.541 176.754,250.810 177.315,249.961 177.986 M125.057 179.652 C 122.883 180.920,120.849 181.958,120.537 181.958 C 120.225 181.958,119.969 182.088,119.969 182.246 C 119.969 182.404,119.682 182.625,119.332 182.736 C 118.491 183.003,115.140 185.317,113.888 186.495 C 113.343 187.009,112.371 187.678,111.730 187.982 C 110.353 188.633,105.015 192.593,102.943 194.500 C 102.145 195.235,101.369 195.837,101.219 195.837 C 101.069 195.837,98.892 197.849,96.382 200.308 C 93.871 202.768,91.705 204.780,91.570 204.780 C 91.434 204.780,91.139 205.042,90.915 205.362 C 90.691 205.683,89.052 207.496,87.274 209.392 C 85.495 211.288,83.982 213.004,83.912 213.205 C 83.842 213.406,83.425 213.931,82.987 214.372 C 81.857 215.508,81.137 216.372,79.413 218.658 C 78.581 219.761,77.825 220.732,77.732 220.817 C 77.294 221.218,76.240 222.906,76.046 223.516 C 75.927 223.892,75.317 224.740,74.692 225.401 C 74.066 226.062,73.381 226.862,73.168 227.179 C 70.498 231.169,69.778 232.383,69.896 232.691 C 69.973 232.891,69.821 233.233,69.559 233.450 C 69.297 233.668,69.082 233.960,69.082 234.099 C 69.082 234.479,65.673 240.305,65.022 241.038 C 64.711 241.388,64.459 241.943,64.462 242.271 C 64.466 242.672,64.770 242.388,65.388 241.404 C 65.893 240.599,66.307 239.856,66.307 239.752 C 66.307 239.649,67.209 238.067,68.311 236.237 C 69.414 234.408,70.316 232.827,70.316 232.726 C 70.316 231.891,79.572 218.917,83.115 214.785 C 87.681 209.461,90.274 206.713,95.201 201.982 C 100.426 196.963,108.973 189.997,112.466 187.910 C 113.455 187.319,114.611 186.513,115.035 186.119 C 115.740 185.464,120.705 182.267,121.018 182.267 C 121.091 182.267,122.169 181.665,123.413 180.930 C 129.855 177.124,129.452 177.183,132.056 179.662 C 138.734 186.018,148.889 193.139,155.590 196.164 C 156.777 196.700,157.957 197.308,158.211 197.515 C 159.208 198.327,166.287 201.056,168.687 201.553 C 169.275 201.675,169.969 201.888,170.229 202.026 C 170.938 202.402,174.893 203.547,175.486 203.547 C 175.771 203.547,176.407 203.739,176.899 203.975 C 177.392 204.211,179.460 204.641,181.496 204.931 C 183.531 205.221,185.515 205.583,185.905 205.736 C 186.295 205.889,186.989 206.002,187.447 205.987 L 188.281 205.961 187.355 205.668 C 186.847 205.507,184.487 205.090,182.113 204.741 C 179.738 204.392,177.488 203.912,177.112 203.673 C 176.736 203.434,176.112 203.233,175.724 203.227 C 175.336 203.221,174.672 203.018,174.248 202.776 C 173.824 202.533,173.057 202.330,172.544 202.324 C 172.030 202.318,171.336 202.124,171.002 201.893 C 170.667 201.662,169.977 201.395,169.468 201.301 C 167.643 200.963,165.746 200.445,164.534 199.954 C 159.567 197.940,158.939 197.644,157.159 196.468 C 156.665 196.142,155.554 195.645,154.691 195.365 C 153.829 195.085,152.914 194.693,152.660 194.495 C 152.406 194.296,151.712 193.874,151.118 193.556 C 150.524 193.238,149.275 192.405,148.342 191.703 C 146.435 190.269,141.557 186.924,140.590 186.387 C 140.242 186.194,139.450 185.558,138.830 184.973 C 138.210 184.389,137.012 183.367,136.167 182.703 C 135.323 182.039,134.352 181.210,134.008 180.861 C 130.035 176.818,129.935 176.805,125.057 179.652 M270.313 177.646 C 270.206 177.818,269.991 177.880,269.834 177.783 C 269.620 177.651,265.862 180.876,264.611 182.266 C 264.526 182.360,263.832 182.907,263.069 183.482 C 262.305 184.057,261.334 184.854,260.910 185.254 C 260.486 185.653,259.584 186.352,258.905 186.806 C 253.454 190.453,251.721 191.656,251.130 192.205 C 250.422 192.861,249.948 193.152,247.709 194.301 C 246.980 194.676,246.443 195.042,246.516 195.115 C 246.651 195.250,248.379 194.371,249.835 193.425 C 258.628 187.717,262.635 184.733,266.924 180.699 C 270.206 177.611,270.698 177.389,272.192 178.324 C 273.343 179.043,274.757 179.837,278.986 182.135 C 280.811 183.128,284.960 185.849,285.274 186.259 C 285.359 186.370,286.469 187.140,287.741 187.971 C 292.525 191.095,299.600 196.842,304.163 201.310 C 305.477 202.597,306.657 203.544,306.784 203.415 C 307.084 203.111,303.888 200.141,297.147 194.458 C 296.469 193.886,295.359 192.947,294.680 192.371 C 294.002 191.795,292.961 190.993,292.367 190.588 C 291.773 190.184,291.218 189.776,291.133 189.683 C 290.733 189.244,288.951 188.124,288.014 187.722 C 287.440 187.476,286.484 186.826,285.891 186.277 C 284.538 185.027,279.884 181.954,279.122 181.807 C 278.808 181.747,277.985 181.340,277.293 180.903 C 276.600 180.466,275.973 180.108,275.899 180.108 C 275.825 180.108,274.708 179.483,273.417 178.720 C 270.935 177.253,270.623 177.145,270.313 177.646 M227.756 189.217 C 226.511 189.787,227.256 189.788,228.569 189.218 C 229.140 188.970,229.399 188.773,229.144 188.780 C 228.890 188.788,228.265 188.984,227.756 189.217 M224.981 190.142 C 223.735 190.712,224.480 190.713,225.793 190.143 C 226.364 189.895,226.623 189.698,226.369 189.706 C 226.114 189.713,225.490 189.909,224.981 190.142 M176.994 191.169 C 177.497 191.616,178.145 191.827,179.014 191.827 C 179.717 191.827,180.449 191.983,180.639 192.173 C 181.018 192.552,183.905 192.976,187.510 193.182 C 189.512 193.296,189.325 193.239,186.122 192.758 C 182.078 192.151,178.496 191.362,176.715 190.686 C 176.461 190.590,176.586 190.807,176.994 191.169 M222.051 191.050 C 220.501 191.620,216.828 192.388,213.261 192.888 L 210.177 193.321 212.645 193.203 C 215.722 193.055,218.707 192.605,219.531 192.164 C 219.877 191.979,220.620 191.826,221.183 191.825 C 221.745 191.824,222.621 191.547,223.130 191.210 C 224.167 190.524,223.680 190.452,222.051 191.050 M193.000 193.650 C 194.069 193.785,195.103 194.054,195.298 194.249 C 195.771 194.723,204.214 194.738,204.686 194.266 C 204.871 194.080,206.044 193.813,207.292 193.671 L 209.561 193.414 207.247 193.583 C 204.041 193.817,195.818 193.825,193.215 193.596 C 191.089 193.408,191.085 193.409,193.000 193.650 M244.719 195.595 C 244.210 195.774,243.238 196.288,242.560 196.738 C 241.515 197.429,237.506 199.261,235.499 199.964 C 235.178 200.077,234.986 200.239,235.071 200.324 C 235.234 200.487,241.046 198.103,241.701 197.606 C 241.907 197.449,243.017 196.859,244.168 196.294 C 246.249 195.271,246.485 194.972,244.719 195.595 M233.719 200.617 C 233.634 200.702,233.160 200.832,232.665 200.908 C 231.237 201.124,229.649 201.570,228.926 201.956 C 228.559 202.153,227.869 202.317,227.391 202.323 C 226.914 202.328,226.253 202.536,225.924 202.785 C 225.595 203.034,224.878 203.238,224.331 203.238 C 223.784 203.238,223.284 203.394,223.220 203.585 C 223.157 203.775,222.555 204.037,221.884 204.166 C 220.888 204.358,220.823 204.407,221.531 204.436 C 222.009 204.456,222.694 204.315,223.052 204.123 C 223.411 203.931,224.408 203.595,225.268 203.377 C 226.128 203.159,227.594 202.750,228.527 202.467 C 229.460 202.185,230.918 201.771,231.766 201.549 C 233.721 201.036,235.007 200.508,234.361 200.482 C 234.093 200.471,233.804 200.532,233.719 200.617 M309.509 206.520 C 314.388 211.408,320.467 218.697,323.748 223.593 C 324.714 225.035,325.669 226.353,325.871 226.523 C 326.282 226.868,329.684 232.119,329.684 232.407 C 329.684 232.706,333.507 238.994,333.620 238.881 C 333.676 238.824,332.953 237.495,332.012 235.926 C 331.071 234.358,330.301 232.832,330.301 232.535 C 330.301 232.238,330.093 231.823,329.838 231.611 C 329.584 231.400,329.375 231.043,329.375 230.818 C 329.375 230.593,329.202 230.297,328.990 230.162 C 328.778 230.026,328.355 229.424,328.051 228.823 C 327.746 228.223,326.671 226.775,325.661 225.607 C 324.651 224.439,323.824 223.261,323.824 222.990 C 323.824 222.719,323.408 222.041,322.899 221.484 C 322.390 220.927,321.974 220.395,321.974 220.303 C 321.974 219.981,319.477 216.881,317.656 214.942 C 317.062 214.310,316.235 213.327,315.818 212.756 C 315.401 212.186,314.480 211.095,313.772 210.332 C 313.064 209.568,311.614 208.007,310.550 206.862 C 309.485 205.717,308.474 204.780,308.302 204.780 C 308.131 204.780,307.701 204.540,307.349 204.247 C 306.996 203.953,307.968 204.976,309.509 206.520 M218.611 204.622 C 218.529 204.704,217.430 204.903,216.170 205.062 C 213.514 205.398,211.328 205.933,212.409 205.982 C 212.788 206.000,213.690 205.875,214.413 205.706 C 215.137 205.536,216.839 205.203,218.196 204.966 C 219.553 204.728,220.235 204.520,219.712 204.503 C 219.189 204.486,218.694 204.539,218.611 204.622 M190.439 206.373 C 193.244 206.663,207.123 206.667,209.715 206.378 C 210.826 206.254,206.499 206.154,200.000 206.152 C 193.392 206.151,189.222 206.247,190.439 206.373 M333.693 239.541 C 333.693 239.740,333.802 239.969,333.935 240.051 C 334.068 240.134,335.275 242.428,336.617 245.149 C 337.959 247.871,339.111 250.043,339.178 249.977 C 339.244 249.911,338.453 248.157,337.419 246.081 C 336.385 244.005,335.575 242.150,335.619 241.960 C 335.662 241.769,335.247 241.066,334.695 240.397 C 334.144 239.728,333.693 239.343,333.693 239.541 M61.554 248.447 C 61.100 249.406,60.785 250.248,60.856 250.318 C 60.926 250.389,61.216 249.921,61.501 249.279 C 61.786 248.636,62.161 247.855,62.334 247.541 C 62.507 247.228,62.588 246.911,62.514 246.837 C 62.440 246.763,62.008 247.487,61.554 248.447 M339.244 250.634 C 339.244 250.746,339.427 251.057,339.649 251.325 C 339.872 251.593,340.274 252.367,340.543 253.045 C 340.811 253.724,341.449 255.320,341.961 256.592 C 342.472 257.864,343.117 259.668,343.394 260.601 C 343.671 261.534,344.083 262.714,344.309 263.223 C 344.919 264.596,345.404 266.078,345.954 268.243 C 346.265 269.470,346.552 270.071,346.739 269.884 C 347.026 269.597,346.500 267.598,345.530 265.294 C 345.296 264.737,345.104 264.060,345.104 263.788 C 345.104 263.517,344.814 262.826,344.460 262.253 C 344.105 261.680,343.760 260.900,343.693 260.520 C 343.307 258.336,343.145 257.811,342.758 257.490 C 342.522 257.294,342.328 256.830,342.328 256.459 C 342.328 256.088,342.125 255.515,341.876 255.186 C 341.627 254.857,341.418 254.285,341.413 253.916 C 341.408 253.546,341.195 253.036,340.941 252.781 C 340.686 252.527,340.478 252.131,340.478 251.902 C 340.478 251.674,340.200 251.249,339.861 250.958 C 339.522 250.668,339.244 250.522,339.244 250.634 M60.034 251.295 C 59.752 251.606,59.522 252.012,59.522 252.197 C 59.522 252.382,59.326 252.926,59.086 253.406 C 57.930 255.723,56.894 258.472,56.445 260.420 C 56.253 261.254,55.826 262.278,55.496 262.698 C 55.166 263.117,54.891 263.754,54.885 264.113 C 54.879 264.471,54.676 265.112,54.433 265.536 C 54.191 265.960,53.988 266.693,53.982 267.166 C 53.976 267.638,53.782 268.332,53.551 268.708 C 53.283 269.143,53.216 269.671,53.366 270.162 C 53.549 270.762,53.608 270.801,53.632 270.338 C 53.667 269.654,53.932 268.765,55.065 265.536 C 55.511 264.264,56.204 262.251,56.604 261.064 C 57.988 256.964,59.960 252.110,60.523 251.419 C 61.039 250.786,60.596 250.673,60.034 251.295 M346.683 270.933 C 346.695 271.686,347.517 273.895,347.543 273.246 C 347.554 272.992,347.362 272.228,347.118 271.550 C 346.873 270.871,346.678 270.594,346.683 270.933 M52.763 272.501 C 52.537 273.265,52.420 273.957,52.502 274.039 C 52.585 274.122,52.829 273.556,53.045 272.783 C 53.262 272.010,53.379 271.318,53.306 271.245 C 53.233 271.172,52.988 271.737,52.763 272.501 M347.597 274.325 C 347.588 274.665,347.781 275.497,348.025 276.176 C 348.601 277.773,348.620 276.907,348.050 275.096 C 347.809 274.333,347.605 273.986,347.597 274.325 M51.812 276.176 C 51.595 276.949,51.488 277.651,51.573 277.735 C 51.657 277.820,51.904 277.257,52.120 276.484 C 52.337 275.711,52.444 275.009,52.360 274.924 C 52.275 274.840,52.028 275.403,51.812 276.176 M348.680 278.335 C 348.734 278.674,349.118 280.478,349.533 282.344 C 350.506 286.721,350.782 289.488,350.267 289.697 C 349.988 289.809,349.984 289.858,350.252 289.875 C 351.073 289.930,351.162 289.011,350.691 285.296 C 350.510 283.867,350.219 282.556,350.046 282.382 C 349.872 282.208,349.730 281.487,349.730 280.778 C 349.730 280.033,349.543 279.334,349.286 279.121 C 349.042 278.918,348.783 278.520,348.712 278.235 C 348.640 277.951,348.626 277.995,348.680 278.335 M50.793 279.394 C 50.505 279.881,50.270 280.762,50.270 281.351 C 50.270 281.941,50.062 282.921,49.807 283.530 C 49.326 284.681,49.148 289.434,49.576 289.697 C 49.703 289.775,49.807 288.916,49.807 287.788 C 49.807 285.841,50.081 284.188,51.039 280.344 C 51.536 278.353,51.497 278.203,50.793 279.394 " stroke="none" fill="#dcdcdb" fill-rule="evenodd"></path></g></svg>